<svg width="337" height="161" viewBox="0 0 337 161" fill="none" xmlns="http://www.w3.org/2000/svg">
<path fill-rule="evenodd" clip-rule="evenodd" d="M334.356 2.01047C334.76 3.16547 335.368 4.70648 335.706 5.43348C336.506 7.15248 336.701 7.02548 328.409 10.1945C326.71 10.8435 326.638 10.8725 322.609 12.4525C321.179 13.0135 318.209 14.1275 316.009 14.9285C313.809 15.7285 311.469 16.6145 310.809 16.8965C310.149 17.1785 307.989 18.0035 306.009 18.7305C300.975 20.5765 300.995 20.5645 294.364 25.5615C265.775 47.1015 245.856 69.0415 241.601 83.6775C240.77 86.5375 240.498 86.7815 236.524 88.2415C231.557 90.0655 214.126 96.6705 213.209 97.0765C212.769 97.2705 211.779 97.6545 211.009 97.9305C210.239 98.2055 209.069 98.6535 208.409 98.9255C207.749 99.1975 203.069 100.981 198.009 102.89C192.949 104.798 188.089 106.639 187.209 106.98C186.329 107.321 184.889 107.871 184.009 108.203C181.602 109.11 180.956 109.357 179.209 110.039C178.329 110.382 172.299 112.672 165.809 115.127C159.319 117.582 152.929 120.001 151.609 120.504C150.289 121.006 144.349 123.26 138.409 125.513C132.469 127.766 124.661 130.764 121.058 132.175C117.455 133.587 114.436 134.671 114.35 134.584C114.263 134.497 118.066 129.456 122.801 123.381C131.143 112.677 132.2 111.115 130.709 111.698C129.124 112.318 120.35 115.607 113.609 118.106C109.649 119.575 106.049 120.927 105.609 121.11C104.296 121.658 84.8454 129.061 78.8094 131.31C75.7294 132.457 69.0694 134.972 64.0094 136.898C58.9494 138.824 51.0294 141.821 46.4094 143.558C41.7894 145.295 37.6494 146.881 37.2094 147.083C36.7694 147.286 31.9994 149.112 26.6094 151.141C21.2194 153.171 15.4594 155.351 13.8094 155.985C12.1594 156.62 9.56243 157.583 8.03843 158.125C6.51443 158.667 4.83543 159.394 4.30643 159.741C3.02543 160.58 2.51343 160.313 1.85843 158.46C1.55743 157.608 0.962434 156.132 0.536434 155.18C-0.546566 152.76 -0.790566 152.945 7.82243 149.676C15.6374 146.71 19.9454 145.059 24.4094 143.323C25.7294 142.809 28.5984 141.714 30.7834 140.889C34.1354 139.625 40.7954 135.55 42.2094 133.898C42.3194 133.769 43.8494 132.575 45.6094 131.243C70.3454 112.526 88.8414 91.6475 94.1374 76.4635L95.2094 73.3915L105.409 69.4585C111.019 67.2955 117.049 64.9935 118.809 64.3435C124.304 62.3145 129.876 60.2035 146.809 53.7365C155.829 50.2925 169.869 44.9455 178.009 41.8545C186.149 38.7645 193.349 36.0025 194.009 35.7185C194.669 35.4345 196.379 34.8005 197.809 34.3105C199.239 33.8205 200.949 33.1865 201.609 32.9025C202.269 32.6195 206.229 31.1015 210.409 29.5305C214.589 27.9595 218.686 26.3835 219.513 26.0295C221.951 24.9855 221.702 25.4925 216.33 32.4985C205.583 46.5145 204.172 48.4065 204.338 48.5725C204.431 48.6665 209.256 46.9185 215.059 44.6875C220.861 42.4575 228.489 39.5555 232.009 38.2395C235.529 36.9235 239.219 35.5165 240.209 35.1115C241.199 34.7075 246.419 32.7195 251.809 30.6935C257.199 28.6675 268.449 24.4105 276.809 21.2345C285.169 18.0585 298.669 12.9335 306.809 9.84647C314.949 6.75947 322.176 3.98148 322.869 3.67248C323.563 3.36348 324.33 3.11048 324.575 3.11048C324.82 3.11048 325.332 2.94848 325.714 2.75148C326.096 2.55448 327.219 2.08248 328.209 1.70347C329.199 1.32447 330.369 0.869474 330.809 0.691474C333.451 -0.374526 333.532 -0.344526 334.356 2.01047ZM191.209 53.7845C185.709 55.8695 180.129 57.9975 178.809 58.5135C177.489 59.0305 175.149 59.9265 173.609 60.5045C171.235 61.3965 170.565 61.8725 169.209 63.6335C168.33 64.7755 164.942 69.1305 161.68 73.3105C158.419 77.4905 154.639 82.3355 153.28 84.0785C149.498 88.9255 144.826 94.9845 142.305 98.3105C141.055 99.9605 139.921 101.4 139.785 101.51C139.65 101.62 138.925 102.541 138.174 103.557C137.423 104.572 135.935 106.518 134.867 107.881C132.073 111.445 130.456 111.847 151.664 103.702L164.918 98.6125L174.264 86.5975C179.404 79.9895 185.93 71.5965 188.767 67.9465C191.604 64.2965 195.577 59.2405 197.596 56.7105C202.519 50.5415 202.935 49.8975 201.955 49.9525C201.545 49.9755 196.709 51.7005 191.209 53.7845Z" fill="url(#paint0_linear_64_70)"/>
<path fill-rule="evenodd" clip-rule="evenodd" d="M332.209 0.171482C331.879 0.280482 331.249 0.514474 330.809 0.691474C330.369 0.869474 329.199 1.32447 328.209 1.70347C327.219 2.08248 326.096 2.55448 325.714 2.75148C325.332 2.94848 324.82 3.11048 324.575 3.11048C324.33 3.11048 323.563 3.36348 322.869 3.67248C322.176 3.98148 314.949 6.75947 306.809 9.84647C298.669 12.9335 285.169 18.0585 276.809 21.2345C268.449 24.4105 257.199 28.6675 251.809 30.6935C246.419 32.7195 241.199 34.7075 240.209 35.1115C239.219 35.5165 235.529 36.9235 232.009 38.2395C228.489 39.5555 220.861 42.4575 215.059 44.6875C209.256 46.9185 204.431 48.6665 204.338 48.5725C204.172 48.4065 205.583 46.5145 216.33 32.4985C221.702 25.4925 221.951 24.9855 219.513 26.0295C218.686 26.3835 214.589 27.9595 210.409 29.5305C206.229 31.1015 202.269 32.6195 201.609 32.9025C200.949 33.1865 199.239 33.8205 197.809 34.3105C196.379 34.8005 194.669 35.4345 194.009 35.7185C193.349 36.0025 186.149 38.7645 178.009 41.8545C169.869 44.9455 155.829 50.2925 146.809 53.7365C129.876 60.2035 124.304 62.3145 118.809 64.3435C117.049 64.9935 111.019 67.2955 105.409 69.4585L95.2094 73.3915L94.1374 76.4635C88.8414 91.6475 70.3454 112.526 45.6094 131.243C43.8494 132.575 42.3194 133.769 42.2094 133.898C40.7954 135.55 34.1354 139.625 30.7834 140.889C28.5984 141.714 25.7294 142.809 24.4094 143.323C19.9454 145.059 15.6374 146.71 7.82243 149.676C-0.790566 152.945 -0.546566 152.76 0.536434 155.18C0.962434 156.132 1.55743 157.608 1.85843 158.46C2.51343 160.313 3.02543 160.58 4.30643 159.741C4.83543 159.394 6.51443 158.667 8.03843 158.125C9.56243 157.583 12.1594 156.62 13.8094 155.985C15.4594 155.351 21.2194 153.171 26.6094 151.141C31.9994 149.112 36.7694 147.286 37.2094 147.083C37.6494 146.881 41.7894 145.295 46.4094 143.558C51.0294 141.821 58.9494 138.824 64.0094 136.898C69.0694 134.972 75.7294 132.457 78.8094 131.31C84.8454 129.061 104.296 121.658 105.609 121.11C106.049 120.927 109.649 119.575 113.609 118.106C120.35 115.607 129.124 112.318 130.709 111.698C132.2 111.115 131.143 112.677 122.801 123.381C118.066 129.456 114.263 134.497 114.35 134.584C114.436 134.671 117.455 133.587 121.058 132.175C124.661 130.764 132.469 127.766 138.409 125.513C144.349 123.26 150.289 121.006 151.609 120.504C152.929 120.001 159.319 117.582 165.809 115.127C172.299 112.672 178.329 110.382 179.209 110.039C180.956 109.357 181.602 109.11 184.009 108.203C184.889 107.871 186.329 107.321 187.209 106.98C188.089 106.639 192.949 104.798 198.009 102.89C203.069 100.981 207.749 99.1975 208.409 98.9255C209.069 98.6535 210.239 98.2055 211.009 97.9305C211.779 97.6545 212.769 97.2705 213.209 97.0765C214.126 96.6705 231.557 90.0655 236.524 88.2415C240.498 86.7815 240.77 86.5375 241.601 83.6775C245.856 69.0415 265.775 47.1015 294.364 25.5615C300.995 20.5645 300.975 20.5765 306.009 18.7305C307.989 18.0035 310.149 17.1785 310.809 16.8965C311.469 16.6145 313.809 15.7285 316.009 14.9285C318.209 14.1275 321.179 13.0135 322.609 12.4525C326.638 10.8725 326.71 10.8435 328.409 10.1945C336.701 7.02548 336.506 7.15248 335.706 5.43348C335.368 4.70648 334.76 3.16547 334.356 2.01047C333.636 -0.0475259 333.424 -0.228518 332.209 0.171482ZM201.984 51.0105C201.59 51.6155 199.615 54.1805 197.596 56.7105C195.577 59.2405 191.604 64.2965 188.767 67.9465C185.93 71.5965 179.404 79.9895 174.264 86.5975L164.918 98.6125L151.664 103.702C130.456 111.847 132.073 111.445 134.867 107.881C135.935 106.518 137.423 104.572 138.174 103.557C138.925 102.541 139.65 101.62 139.785 101.51C139.921 101.4 141.055 99.9605 142.305 98.3105C144.826 94.9845 149.498 88.9255 153.28 84.0785C154.639 82.3355 158.419 77.4905 161.68 73.3105C164.942 69.1305 168.33 64.7755 169.209 63.6335C170.565 61.8725 171.235 61.3965 173.609 60.5045C175.149 59.9265 177.489 59.0305 178.809 58.5135C199.072 50.5815 203.117 49.2725 201.984 51.0105Z" fill="url(#paint1_linear_64_70)"/>
<defs>
<linearGradient id="paint0_linear_64_70" x1="138.585" y1="6.30423e-06" x2="197.485" y2="160.195" gradientUnits="userSpaceOnUse">
<stop offset="0.31" stop-color="#73797D"/>
<stop offset="0.69" stop-color="#42444A"/>
</linearGradient>
<linearGradient id="paint1_linear_64_70" x1="138.585" y1="6.30423e-06" x2="197.485" y2="160.195" gradientUnits="userSpaceOnUse">
<stop offset="0.31" stop-color="#73797D"/>
<stop offset="0.69" stop-color="#42444A"/>
</linearGradient>
</defs>
</svg>
