<svg width="532" height="271" viewBox="0 0 532 271" fill="none" xmlns="http://www.w3.org/2000/svg">
<g filter="url(#filter0_ddii_62_55)">
<path fill-rule="evenodd" clip-rule="evenodd" d="M511.451 14.9912C512.052 16.7095 512.956 19.0022 513.459 20.0839C514.65 22.6414 514.94 22.4524 502.603 27.1672C500.075 28.1328 499.968 28.1759 493.974 30.5266C491.846 31.3613 487.428 33.0187 484.154 34.2104C480.881 35.4006 477.4 36.7188 476.418 37.1383C475.436 37.5579 472.222 38.7853 469.277 39.8669C461.787 42.6134 461.817 42.5955 451.951 50.03C409.417 82.0769 379.782 114.719 373.451 136.494C372.215 140.749 371.81 141.112 365.898 143.284C358.508 145.998 332.574 155.825 331.21 156.429C330.555 156.718 329.082 157.289 327.937 157.7C326.791 158.109 325.051 158.775 324.069 159.18C323.087 159.585 316.124 162.239 308.596 165.079C301.067 167.918 293.837 170.657 292.528 171.164C291.218 171.671 289.076 172.49 287.767 172.984C284.186 174.333 283.224 174.701 280.625 175.715C279.316 176.225 270.345 179.633 260.689 183.285C251.033 186.938 241.526 190.536 239.562 191.285C237.599 192.032 228.761 195.385 219.924 198.737C211.086 202.089 199.47 206.55 194.109 208.649C188.749 210.75 184.257 212.362 184.129 212.233C184 212.103 189.658 204.604 196.702 195.565C209.113 179.64 210.686 177.316 208.468 178.183C206.11 179.106 193.056 183.999 183.027 187.717C177.135 189.903 171.779 191.914 171.124 192.186C169.171 193.002 140.232 204.016 131.252 207.362C126.669 209.068 116.761 212.81 109.232 215.676C101.704 218.541 89.9209 223 83.0473 225.584C76.1737 228.169 70.0143 230.528 69.3597 230.829C68.705 231.131 61.6083 233.847 53.5891 236.866C45.57 239.886 37.0003 243.13 34.5455 244.073C32.0906 245.018 28.2269 246.45 25.9595 247.257C23.6921 248.063 21.1941 249.145 20.4071 249.661C18.5012 250.909 17.7395 250.512 16.765 247.755C16.3171 246.488 15.4319 244.292 14.7981 242.875C13.1868 239.275 12.8238 239.55 25.6381 234.687C37.2652 230.274 43.6745 227.817 50.316 225.235C52.2799 224.47 56.5484 222.841 59.7992 221.613C64.7862 219.733 74.6949 213.67 76.7986 211.212C76.9623 211.02 79.2386 209.244 81.8571 207.262C118.659 179.415 146.177 148.352 154.056 125.761L155.651 121.191L170.827 115.339C179.173 112.121 188.145 108.696 190.763 107.729C198.938 104.711 207.228 101.57 232.421 91.9484C245.841 86.8244 266.729 78.8693 278.84 74.2705C290.951 69.6733 301.663 65.564 302.645 65.1415C303.626 64.7189 306.171 63.7757 308.298 63.0466C310.426 62.3176 312.97 61.3744 313.952 60.9518C314.934 60.5308 320.825 58.2723 327.044 55.935C333.263 53.5977 339.359 51.253 340.589 50.7263C344.216 49.173 343.846 49.9274 335.853 60.3508C319.864 81.2036 317.765 84.0185 318.012 84.2654C318.15 84.4053 325.329 81.8046 333.962 78.4854C342.595 75.1676 353.943 70.8501 359.18 68.8922C364.417 66.9342 369.907 64.8409 371.38 64.2384C372.853 63.6373 380.619 60.6796 388.639 57.6653C396.658 54.6511 413.395 48.3176 425.833 43.5923C438.271 38.8671 458.356 31.2422 470.467 26.6494C482.577 22.0566 493.33 17.9236 494.361 17.4639C495.393 17.0041 496.534 16.6277 496.899 16.6277C497.263 16.6277 498.025 16.3867 498.593 16.0936C499.162 15.8005 500.832 15.0983 502.305 14.5344C503.778 13.9705 505.519 13.2936 506.174 13.0288C510.104 11.4428 510.225 11.4874 511.451 14.9912ZM298.479 92.0198C290.296 95.1218 281.994 98.2878 280.03 99.0555C278.066 99.8247 274.585 101.158 272.294 102.018C268.762 103.345 267.765 104.053 265.747 106.673C264.44 108.372 259.399 114.851 254.546 121.07C249.694 127.289 244.07 134.498 242.048 137.091C236.422 144.302 229.471 153.317 225.72 158.265C223.86 160.72 222.173 162.862 221.971 163.026C221.77 163.19 220.691 164.56 219.574 166.071C218.457 167.581 216.243 170.477 214.654 172.505C210.497 177.807 208.091 178.405 239.644 166.287L259.363 158.714L273.268 140.839C280.915 131.007 290.625 118.52 294.846 113.09C299.066 107.659 304.977 100.137 307.981 96.373C315.306 87.1949 315.924 86.2368 314.466 86.3186C313.856 86.3528 306.662 88.9192 298.479 92.0198Z" fill="url(#paint0_linear_62_55)"/>
<path fill-rule="evenodd" clip-rule="evenodd" d="M508.257 12.2551C507.766 12.4173 506.828 12.7654 506.174 13.0288C505.519 13.2936 503.778 13.9705 502.305 14.5344C500.832 15.0983 499.162 15.8005 498.593 16.0936C498.025 16.3867 497.263 16.6277 496.899 16.6277C496.534 16.6277 495.393 17.0041 494.361 17.4639C493.33 17.9236 482.577 22.0566 470.467 26.6494C458.356 31.2422 438.271 38.8671 425.833 43.5923C413.395 48.3176 396.658 54.6511 388.639 57.6653C380.619 60.6796 372.853 63.6373 371.38 64.2384C369.907 64.8409 364.417 66.9342 359.18 68.8922C353.943 70.8501 342.595 75.1676 333.962 78.4854C325.329 81.8046 318.15 84.4053 318.012 84.2654C317.765 84.0185 319.864 81.2036 335.853 60.3508C343.846 49.9274 344.216 49.173 340.589 50.7263C339.359 51.253 333.263 53.5977 327.044 55.935C320.825 58.2723 314.934 60.5308 313.952 60.9518C312.97 61.3744 310.426 62.3176 308.298 63.0466C306.171 63.7757 303.626 64.7189 302.645 65.1415C301.663 65.564 290.951 69.6733 278.84 74.2705C266.729 78.8693 245.841 86.8244 232.421 91.9484C207.228 101.57 198.938 104.711 190.763 107.729C188.145 108.696 179.173 112.121 170.827 115.339L155.651 121.191L154.056 125.761C146.177 148.352 118.659 179.415 81.8571 207.262C79.2386 209.244 76.9623 211.02 76.7986 211.212C74.6949 213.67 64.7862 219.733 59.7992 221.613C56.5484 222.841 52.2799 224.47 50.316 225.235C43.6745 227.817 37.2652 230.274 25.6381 234.687C12.8238 239.55 13.1868 239.275 14.7981 242.875C15.4319 244.292 16.3171 246.488 16.765 247.755C17.7395 250.512 18.5012 250.909 20.4071 249.661C21.1941 249.145 23.6921 248.063 25.9595 247.257C28.2269 246.45 32.0906 245.018 34.5455 244.073C37.0003 243.13 45.57 239.886 53.5891 236.866C61.6083 233.847 68.705 231.131 69.3597 230.829C70.0143 230.528 76.1737 228.169 83.0473 225.584C89.9209 223 101.704 218.541 109.232 215.676C116.761 212.81 126.669 209.068 131.252 207.362C140.232 204.016 169.171 193.002 171.124 192.186C171.779 191.914 177.135 189.903 183.027 187.717C193.056 183.999 206.11 179.106 208.468 178.183C210.686 177.316 209.113 179.64 196.702 195.565C189.658 204.604 184 212.103 184.129 212.233C184.257 212.362 188.749 210.75 194.109 208.649C199.47 206.55 211.086 202.089 219.924 198.737C228.761 195.385 237.599 192.032 239.562 191.285C241.526 190.536 251.033 186.938 260.689 183.285C270.345 179.633 279.316 176.225 280.625 175.715C283.224 174.701 284.186 174.333 287.767 172.984C289.076 172.49 291.218 171.671 292.528 171.164C293.837 170.657 301.067 167.918 308.596 165.079C316.124 162.239 323.087 159.585 324.069 159.18C325.051 158.775 326.791 158.109 327.937 157.7C329.082 157.289 330.555 156.718 331.21 156.429C332.574 155.825 358.508 145.998 365.898 143.284C371.81 141.112 372.215 140.749 373.451 136.494C379.782 114.719 409.417 82.0769 451.951 50.03C461.817 42.5955 461.787 42.6134 469.277 39.8669C472.222 38.7853 475.436 37.5579 476.418 37.1383C477.4 36.7188 480.881 35.4006 484.154 34.2104C487.428 33.0187 491.846 31.3613 493.974 30.5266C499.968 28.1759 500.075 28.1328 502.603 27.1672C514.94 22.4524 514.65 22.6414 513.459 20.0839C512.956 19.0022 512.052 16.7095 511.451 14.9912C510.38 11.9293 510.064 11.66 508.257 12.2551ZM314.51 87.8927C313.923 88.7928 310.985 92.6089 307.981 96.373C304.977 100.137 299.066 107.659 294.846 113.09C290.625 118.52 280.915 131.007 273.268 140.839L259.363 158.714L239.644 166.287C208.091 178.405 210.497 177.807 214.654 172.505C216.243 170.477 218.457 167.581 219.574 166.071C220.691 164.56 221.77 163.19 221.971 163.026C222.173 162.862 223.86 160.72 225.72 158.265C229.471 153.317 236.422 144.302 242.048 137.091C244.07 134.498 249.694 127.289 254.546 121.07C259.399 114.851 264.44 108.372 265.747 106.673C267.765 104.053 268.762 103.345 272.294 102.018C274.585 101.158 278.066 99.8247 280.03 99.0555C310.177 87.2544 316.195 85.3069 314.51 87.8927Z" fill="url(#paint1_linear_62_55)"/>
</g>
<g filter="url(#filter1_d_62_55)">
<path d="M312.802 225.215H309.826V216.289H295.276V213.313H309.826V204.386H312.802V225.215ZM293.788 225.215H290.812V204.386H293.788V225.215Z" fill="#425AEF"/>
<path d="M334.53 225.215H317.451V208.79H334.53V211.796H320.456V222.21H334.53V225.215ZM332.626 218.431H321.854V215.426H332.626V218.431ZM322.569 206.707V204.267H329.591V206.707H322.569Z" fill="#425AEF"/>
<path d="M355.763 220.395C355.763 221.288 355.545 222.101 355.109 222.835C354.692 223.549 354.117 224.124 353.383 224.561C352.649 224.997 351.835 225.215 350.943 225.215H337.047V222.24H350.943C351.459 222.24 351.895 222.061 352.252 221.704C352.629 221.347 352.817 220.911 352.817 220.395C352.817 219.879 352.629 219.443 352.252 219.086C351.895 218.709 351.459 218.52 350.943 218.52H341.838C340.965 218.52 340.161 218.302 339.427 217.866C338.713 217.429 338.138 216.844 337.701 216.11C337.265 215.376 337.047 214.563 337.047 213.67C337.047 212.797 337.265 211.994 337.701 211.26C338.138 210.526 338.713 209.941 339.427 209.504C340.161 209.068 340.965 208.85 341.838 208.85H354.662V211.796H341.838C341.342 211.796 340.905 211.984 340.528 212.361C340.171 212.718 339.993 213.154 339.993 213.67C339.993 214.186 340.171 214.632 340.528 215.009C340.905 215.366 341.342 215.545 341.838 215.545H350.943C351.835 215.545 352.649 215.763 353.383 216.199C354.117 216.636 354.692 217.221 355.109 217.955C355.545 218.689 355.763 219.502 355.763 220.395Z" fill="#425AEF"/>
<path d="M377.575 214.801C377.575 215.872 377.307 216.864 376.772 217.776C376.236 218.689 375.512 219.423 374.6 219.978C373.707 220.514 372.715 220.782 371.624 220.782H363.352V217.836H371.624C372.457 217.836 373.161 217.538 373.737 216.943C374.332 216.328 374.629 215.614 374.629 214.801C374.629 213.968 374.332 213.263 373.737 212.688C373.161 212.093 372.457 211.796 371.624 211.796H361.805V225.215H358.859V208.85H371.624C372.715 208.85 373.707 209.118 374.6 209.653C375.512 210.189 376.236 210.913 376.772 211.825C377.307 212.718 377.575 213.71 377.575 214.801Z" fill="#425AEF"/>
<path d="M397.384 225.215H380.304V208.79H397.384V211.796H383.309V222.21H397.384V225.215ZM395.479 218.431H384.708V215.426H395.479V218.431Z" fill="#425AEF"/>
<path d="M419.926 225.215H415.879L411.237 220.782H405.197V217.836H413.439C414.272 217.836 414.976 217.538 415.552 216.943C416.147 216.328 416.444 215.614 416.444 214.801C416.444 213.968 416.147 213.263 415.552 212.688C414.976 212.093 414.272 211.796 413.439 211.796H403.649V225.215H400.674V208.85H413.439C414.55 208.85 415.552 209.118 416.444 209.653C417.337 210.189 418.051 210.913 418.587 211.825C419.122 212.718 419.39 213.71 419.39 214.801C419.39 215.694 419.202 216.537 418.825 217.33C418.468 218.104 417.962 218.778 417.307 219.353C416.672 219.909 415.938 220.306 415.105 220.544L419.926 225.215Z" fill="#425AEF"/>
<path d="M440.607 208.85V217.033C440.607 218.163 440.389 219.225 439.953 220.216C439.536 221.208 438.951 222.081 438.197 222.835C437.463 223.569 436.6 224.154 435.608 224.59C434.636 225.007 433.585 225.215 432.454 225.215H430.818C429.687 225.215 428.626 225.007 427.634 224.59C426.662 224.154 425.799 223.559 425.045 222.805C424.311 222.051 423.726 221.188 423.289 220.216C422.873 219.225 422.665 218.163 422.665 217.033V208.85H425.64V217.033C425.64 217.985 425.868 218.858 426.324 219.651C426.801 220.445 427.425 221.079 428.199 221.555C428.993 222.012 429.865 222.24 430.818 222.24H432.454C433.426 222.24 434.299 222.012 435.073 221.555C435.846 221.079 436.461 220.445 436.918 219.651C437.394 218.858 437.632 217.985 437.632 217.033V208.85H440.607Z" fill="#425AEF"/>
<path d="M462.553 220.395C462.553 221.288 462.334 222.101 461.898 222.835C461.481 223.549 460.906 224.124 460.172 224.561C459.438 224.997 458.625 225.215 457.732 225.215H443.836V222.24H457.732C458.248 222.24 458.684 222.061 459.041 221.704C459.418 221.347 459.607 220.911 459.607 220.395C459.607 219.879 459.418 219.443 459.041 219.086C458.684 218.709 458.248 218.52 457.732 218.52H448.627C447.754 218.52 446.951 218.302 446.217 217.866C445.503 217.429 444.927 216.844 444.491 216.11C444.054 215.376 443.836 214.563 443.836 213.67C443.836 212.797 444.054 211.994 444.491 211.26C444.927 210.526 445.503 209.941 446.217 209.504C446.951 209.068 447.754 208.85 448.627 208.85H461.452V211.796H448.627C448.131 211.796 447.695 211.984 447.318 212.361C446.961 212.718 446.782 213.154 446.782 213.67C446.782 214.186 446.961 214.632 447.318 215.009C447.695 215.366 448.131 215.545 448.627 215.545H457.732C458.625 215.545 459.438 215.763 460.172 216.199C460.906 216.636 461.481 217.221 461.898 217.955C462.334 218.689 462.553 219.502 462.553 220.395Z" fill="#425AEF"/>
</g>
<defs>
<filter id="filter0_ddii_62_55" x="0" y="0" width="532" height="270.336" filterUnits="userSpaceOnUse" color-interpolation-filters="sRGB">
<feFlood flood-opacity="0" result="BackgroundImageFix"/>
<feColorMatrix in="SourceAlpha" type="matrix" values="0 0 0 0 0 0 0 0 0 0 0 0 0 0 0 0 0 0 127 0" result="hardAlpha"/>
<feOffset dx="2" dy="4"/>
<feGaussianBlur stdDeviation="8"/>
<feComposite in2="hardAlpha" operator="out"/>
<feColorMatrix type="matrix" values="0 0 0 0 0 0 0 0 0 0 0 0 0 0 0 0 0 0 0.3 0"/>
<feBlend mode="normal" in2="BackgroundImageFix" result="effect1_dropShadow_62_55"/>
<feColorMatrix in="SourceAlpha" type="matrix" values="0 0 0 0 0 0 0 0 0 0 0 0 0 0 0 0 0 0 127 0" result="hardAlpha"/>
<feOffset dx="1" dy="2"/>
<feGaussianBlur stdDeviation="2"/>
<feComposite in2="hardAlpha" operator="out"/>
<feColorMatrix type="matrix" values="0 0 0 0 0 0 0 0 0 0 0 0 0 0 0 0 0 0 0.3 0"/>
<feBlend mode="normal" in2="effect1_dropShadow_62_55" result="effect2_dropShadow_62_55"/>
<feBlend mode="normal" in="SourceGraphic" in2="effect2_dropShadow_62_55" result="shape"/>
<feColorMatrix in="SourceAlpha" type="matrix" values="0 0 0 0 0 0 0 0 0 0 0 0 0 0 0 0 0 0 127 0" result="hardAlpha"/>
<feOffset/>
<feGaussianBlur stdDeviation="2"/>
<feComposite in2="hardAlpha" operator="arithmetic" k2="-1" k3="1"/>
<feColorMatrix type="matrix" values="0 0 0 0 1 0 0 0 0 1 0 0 0 0 1 0 0 0 0.3 0"/>
<feBlend mode="normal" in2="shape" result="effect3_innerShadow_62_55"/>
<feColorMatrix in="SourceAlpha" type="matrix" values="0 0 0 0 0 0 0 0 0 0 0 0 0 0 0 0 0 0 127 0" result="hardAlpha"/>
<feOffset dy="1"/>
<feGaussianBlur stdDeviation="1"/>
<feComposite in2="hardAlpha" operator="arithmetic" k2="-1" k3="1"/>
<feColorMatrix type="matrix" values="0 0 0 0 1 0 0 0 0 1 0 0 0 0 1 0 0 0 0.3 0"/>
<feBlend mode="normal" in2="effect3_innerShadow_62_55" result="effect4_innerShadow_62_55"/>
</filter>
<filter id="filter1_d_62_55" x="280.812" y="194.267" width="191.74" height="40.948" filterUnits="userSpaceOnUse" color-interpolation-filters="sRGB">
<feFlood flood-opacity="0" result="BackgroundImageFix"/>
<feColorMatrix in="SourceAlpha" type="matrix" values="0 0 0 0 0 0 0 0 0 0 0 0 0 0 0 0 0 0 127 0" result="hardAlpha"/>
<feOffset/>
<feGaussianBlur stdDeviation="5"/>
<feComposite in2="hardAlpha" operator="out"/>
<feColorMatrix type="matrix" values="0 0 0 0 0.258824 0 0 0 0 0.530196 0 0 0 0 0.937255 0 0 0 0.8 0"/>
<feBlend mode="normal" in2="BackgroundImageFix" result="effect1_dropShadow_62_55"/>
<feBlend mode="normal" in="SourceGraphic" in2="effect1_dropShadow_62_55" result="shape"/>
</filter>
<linearGradient id="paint0_linear_62_55" x1="221.755" y1="12" x2="306.245" y2="250.336" gradientUnits="userSpaceOnUse">
<stop offset="0.3125" stop-color="#4D5152"/>
<stop offset="0.6875" stop-color="#222425"/>
</linearGradient>
<linearGradient id="paint1_linear_62_55" x1="221.755" y1="12" x2="306.245" y2="250.336" gradientUnits="userSpaceOnUse">
<stop offset="0.3125" stop-color="#4D5152"/>
<stop offset="0.6875" stop-color="#222425"/>
</linearGradient>
</defs>
</svg>
