<svg xmlns:xlink="http://www.w3.org/1999/xlink" width="200" height="200" viewBox="0 0 52.917 52.917"><g transform="matrix(2 0 0 2 0 0)"><rect width="26.458" height="26.458" fill="#222" rx="1.984"/><rect width="23.813" height="23.813" x="1.323" y="1.323" fill="#3f51b5" rx="1.323"/><g fill="#222"><path d="M17.239 5.259a.95.95 0 0 0-.571.003c-.25.081-.284.132-.424.64l-.163.574-.079.281-.085.314-.202.733a3.8 3.8 0 0 1-.06.222l-.1.366-.16.607-.114.449c.002.007-.011.058-.029.114a32 32 0 0 0-.293 1.195c-.058.257-.08.499-.064.72.009.135.091.32.188.43a.35.35 0 0 0 .24.142c.129.028.158.026.32-.027.142-.046.202-.079.293-.16.177-.158.191-.192.43-1.071l.22-.81.071-.248.063-.235c.001-.014.035-.138.074-.275l.143-.511.145-.514.07-.265a2.6 2.6 0 0 1 .064-.245l.479-1.749c.016-.075.011-.146-.02-.262-.038-.143-.054-.169-.153-.259-.079-.072-.176-.126-.283-.16zm-9.912-2.64c-.159-.051-.341-.057-.521-.011-.141.036-.185.057-.256.126-.076.074-.102.14-.236.596l-.166.589a3.6 3.6 0 0 1-.073.262l-.067.241c-.005.031-.023.103-.041.161l-.316 1.154-.141.52-.092.352-.105.418c-.291 1.127-.36 1.499-.332 1.792a.67.67 0 0 0 .086.319.51.51 0 0 0 .374.278c.122.024.163.021.293-.022.269-.09.508-.355.555-.617a3.5 3.5 0 0 1 .078-.3l.076-.275c.009-.042.042-.166.073-.274l.14-.498.142-.511.103-.379.172-.628.102-.378.076-.271.049-.177c-.001-.005.03-.124.07-.265l.144-.517.132-.474c.164-.578.176-.761.06-.937a.7.7 0 0 0-.379-.275zm1.7.762-.038.136-.195.718c.001.005-.035.141-.08.302l-.28 1.024-.129.471-.097.365-.06.222c-.013.037-.049.166-.08.288l-.087.326-.187.686a4.7 4.7 0 0 1-.073.271l-.072.273c.002.006-.013.061-.032.123l-.239.869c-.019.072-.027.144-.02.161s.114.058.237.091l.47.128.528.146.291.076a2.3 2.3 0 0 1 .218.058l.767.211.827.225.301.08a4.4 4.4 0 0 1 .286.075l.365.101.376.102.492.131.369.104.178.048c.007-.002.091.019.188.048s.178.048.181.043c.006-.012.12-.43.177-.649l.097-.35.05-.192c-.002-.007.025-.108.058-.225l.302-1.102.129-.471.096-.365.061-.222a5.3 5.3 0 0 0 .08-.288l.087-.326.187-.687c-.001-.005.035-.141.08-.302l.141-.502.136-.566a15 15 0 0 0-.559-.157 4 4 0 0 1-.266-.07l-.544-.149-.52-.144-.243-.064c-.006.001-.128-.031-.273-.073l-.274-.072c-.006.002-.073-.017-.149-.041l-.281-.078-.365-.097-.484-.132-1.02-.278-.313-.083c-.022-.002-.267-.069-.672-.182zm6.935 2.137-.315-.083-.239-.062c-.022-.009-.049.056-.088.212l-.176.668-.067.264a4 4 0 0 1-.072.275l-.072.276c.003.01-.029.129-.198.74l-.08.305c.002.009-.139.545-.216.82l-.071.274-.451 1.72c-.016.058-.027.113-.025.123.004.019.077.041.457.14l.234.052a24 24 0 0 0 .151-.592l.098-.378.342-1.305.084-.308.049-.191a3 3 0 0 1 .073-.271l.072-.273c-.002-.008.03-.132.071-.276l.072-.272c-.001-.005.015-.072.037-.148l.107-.399.15-.573.131-.507.049-.194zM8.127 3.452c-.093-.022-.115-.02-.125.01-.043.128-.282 1.015-.278 1.03a2.9 2.9 0 0 1-.057.226l-.132.49-.143.535-.086.338c-.009.042-.041.165-.072.273l-.081.3-.336 1.278-.155.599-.123.457c-.017.051-.028.104-.026.116s.056.034.118.049l.332.087.231.057c.011-.003.109-.357.185-.668l.111-.43.137-.517.121-.452.061-.245c-.001-.005.031-.128.072-.273l.071-.276c-.002-.007.031-.129.073-.271l.072-.274a2.2 2.2 0 0 1 .066-.252l.067-.249a1.2 1.2 0 0 1 .04-.16l.115-.428.146-.56c.16-.606.164-.629.132-.643-.04-.017-.387-.113-.537-.149zm1.333 7.106-.009.029-.076.27c.001.012-.046.173-.092.312-.017.05-.028.094-.025.097a.54.54 0 0 1-.027.108l-.061.207-.055.189-.035.126-.035.131-.054.189-.06.21-.06.215-.122.43-.052.189-.064.231-.111.393-.073.265-.054.186-.103.357a.42.42 0 0 0-.023.096 2 2 0 0 0 .196.06l.81.221.423.112.338.088c.009 0 .028-.063.096-.304l.059-.199.03-.11c-.001-.006.013-.058.029-.115l.066-.231.061-.2a.3.3 0 0 0 .02-.079c-.004-.005.038-.158.076-.277l.031-.105.043-.152.053-.189.065-.231.064-.231.051-.173.035-.124a.9.9 0 0 1 .029-.1.8.8 0 0 0 .025-.091 4 4 0 0 1 .095-.333.46.46 0 0 0 .026-.097c-.002-.003.006-.037.02-.076s.044-.146.068-.239l.068-.239c.013-.039.022-.073.02-.076s.009-.042.025-.087a.8.8 0 0 0 .035-.125l.006-.044-.075-.023-.23-.063-.378-.101-.812-.219-.183-.051zm.919 5.043-.509-.134-.229-.055a1.7 1.7 0 0 1-.192-.046l-.923-.238-.832-.214c-.015-.009-.034-.013-.043-.011a1.6 1.6 0 0 0-.102.343 9 9 0 0 1-.092.363l-.086.325.062.026c.034.014.07.024.079.022s.155.032.323.076l.982.251.599.153.284.068.195.049c.074.026.51.131.527.126.006-.002.031-.088.056-.191l.124-.495.074-.325c-.003-.01-.137-.052-.298-.093zm-2.291.76c-.155-.042-.292-.07-.305-.062-.022.013-.059.142-.175.6l-.221.832-.11.416-.187.691-.055.212c.002.006-.021.096-.052.2l-.053.199c.002.005-.024.102-.058.216l-.057.218a1.6 1.6 0 0 1-.053.198l-.059.223c-.001.021-.018.085-.037.144l-.063.229 2.082.581.308-1.087.055-.213a1.8 1.8 0 0 1 .045-.181l.175-.655c-.002-.005.025-.102.059-.215l.058-.215c-.002-.005.026-.116.062-.246l.158-.589c-.002-.005.024-.101.058-.216l.057-.217c-.002-.005.016-.074.04-.153.055-.181.116-.429.106-.432s-.449-.124-.739-.201l-1.038-.278z"/><use href="#B"/></g><g fill="#eee" text-anchor="middle"><path d="m4.102 23.289-.262-.627H2.392l-.262.627h-.588l1.3-2.963h.588l1.283 2.963zm-1.507-1.113h1.041l-.516-1.245zm2.637-.107q0 .351.199.55t.533.199.525-.199q.195-.199.195-.55v-1.744h.567v1.744q0 .385-.157.673-.157.284-.449.436-.288.152-.682.152-.398 0-.694-.152-.292-.152-.449-.436-.157-.288-.157-.673v-1.744h.567z"/><use href="#C"/><path d="M9.879 20.325h.567v1.266h1.477v-1.266h.567v2.963h-.567v-1.202h-1.477v1.202h-.567z"/><use href="#D"/><use href="#E"/><path d="M18.908 20.325h.567v2.963h-.567z"/><use x="12.287" href="#C"/><path d="m24.549 20.325-1.079 1.994v.969h-.567v-.948l-1.105-2.015h.576l.809 1.393.796-1.393z"/></g></g><g transform="matrix(2 0 0 2 396.875 66.675)"><rect width="26.458" height="26.458" fill="#222" rx="1.984"/><rect width="23.813" height="23.813" x="1.323" y="1.323" fill="#9c27b0" rx="1.323"/><g fill="#222"><path d="M10.805 3.447a.159.159 0 0 0-.136.115v.003c-.528.075-1.027.401-1.48 1.127-.477.775-.836 1.889-1.111 3.276-1.296-.448-2.424-.7-3.336-.684-.959.017-1.626.262-1.926.787v.003a1.3 1.3 0 0 0-.154.635c0 .421.155.892.448 1.418.433.8 1.208 1.657 2.242 2.565-1.051.924-1.836 1.787-2.268 2.58v.002c-.275.525-.422.986-.422 1.39a1.3 1.3 0 0 0 .154.635v.003c.291.517.944.766 1.886.799h.003c.914.024 2.054-.234 3.372-.696.274 1.348.623 2.453 1.087 3.236v.002c.5.826 1.051 1.282 1.659 1.282.601 0 1.143-.457 1.635-1.282v-.002c.464-.784.816-1.888 1.09-3.238 1.33.458 2.473.711 3.381.687.941-.025 1.594-.269 1.886-.785v-.003c.113-.189.169-.41.169-.652 0-.404-.146-.86-.422-1.377v-.002c-.443-.797-1.234-1.657-2.294-2.579 1.036-.909 1.823-1.768 2.27-2.575h-.003c.292-.518.448-.98.448-1.394 0-.242-.056-.463-.169-.652-.301-.525-.969-.768-1.935-.785-.91-.016-2.04.236-3.339.682-.275-1.385-.632-2.498-1.108-3.273-.492-.801-1.025-1.244-1.61-1.244a.2.2 0 0 0-.016 0zm.016.937c.15 0 .308.068.483.232s.36.425.546.78c.346.655.624 1.638.839 2.868l-1.865.818-1.893-.818c.215-1.231.492-2.213.839-2.868.185-.355.372-.616.55-.78s.341-.232.502-.232zM4.764 8.13l.289.006c.747.038 1.718.287 2.856.705l-.22 2.036-1.65 1.214c-.938-.776-1.643-1.494-2.05-2.128V9.96c-.221-.339-.355-.631-.408-.869s-.029-.415.056-.558l.003-.003c.078-.137.217-.243.45-.314a2.47 2.47 0 0 1 .674-.087zm12.103 0c.273.004.499.034.676.087.234.071.377.177.459.314.082.142.107.319.052.558s-.192.532-.413.872v.003c-.407.641-1.116 1.363-2.062 2.139l-1.649-1.216-.232-2.046c1.138-.417 2.114-.667 2.878-.705h.002l.29-.006zm-4.036 1.043.112 1.08-.527-.328-.007-.004-.57-.309.991-.438zm-4.042.009.991.431-.56.309-.005.002-.541.33.115-1.073zm2.006.937 1.141.614 1.092.661.033 1.296-.033 1.286-1.092.658-.002.002-1.115.623-1.12-.623-.007-.002-1.101-.658-.021-1.286.021-1.296 1.103-.661h.002zm.025 1.485c-.189 0-.371.05-.539.143a.95.95 0 0 0-.403.391c-.094.169-.143.355-.143.55a1.11 1.11 0 0 0 .143.541l.002.002a1.05 1.05 0 0 0 .4.387 1.1 1.1 0 0 0 .539.143c.182 0 .361-.05.528-.143a1.05 1.05 0 0 0 .4-.387l.002-.002a1.11 1.11 0 0 0 .143-.541c0-.196-.049-.381-.143-.55a.95.95 0 0 0-.403-.391c-.167-.093-.345-.143-.528-.143zm-3.184.441-.007.644.007.635-.881-.635zm6.347 0 .891.644-.891.635.017-.635zM6.03 13.278l1.659 1.216.22 2.034c-1.161.425-2.145.675-2.891.705-.399.016-.714-.016-.944-.087s-.367-.176-.445-.309-.1-.306-.047-.541.183-.528.396-.867l.003-.002c.383-.631 1.09-1.357 2.05-2.149zm9.559 0c.961.792 1.673 1.518 2.064 2.151v.002c.217.339.35.63.403.865s.029.405-.051.539v.003c-.078.134-.218.238-.448.309s-.546.103-.944.087c-.747-.03-1.735-.28-2.903-.705l.221-2.034 1.658-1.216zm-6.914 1.834.546.335.56.309-.994.438zm4.269.002-.112 1.08-.991-.438.57-.309.002-.002.532-.33zm-2.148 1.172 1.895.829c-.207 1.202-.482 2.172-.829 2.844v.003c-.181.359-.367.622-.544.787s-.337.234-.497.234-.33-.071-.511-.237-.368-.428-.553-.787c-.347-.672-.622-1.642-.829-2.844z" text-anchor="middle"/><use href="#B"/></g><g fill="#eee" text-anchor="middle"><path d="M3.761 20.325q.559 0 .864.267.309.267.309.754 0 .508-.309.792-.305.279-.864.279h-.648v.872h-.567v-2.963zm-.03 1.592q.322 0 .491-.14.174-.14.174-.415 0-.271-.174-.406-.169-.135-.491-.135h-.618v1.096z"/><use x="-10.972" href="#E"/><use x="-5.018" href="#D"/><path d="M13.007 21.815h.495v1.126q-.233.174-.55.284-.318.106-.622.106-.436 0-.796-.203-.356-.203-.563-.55-.207-.351-.207-.775 0-.423.212-.766.212-.347.576-.546.368-.203.813-.203.318 0 .627.114t.533.313l-.322.419q-.169-.161-.394-.25-.22-.089-.444-.089-.279 0-.516.135-.233.131-.368.364t-.135.508q0 .279.135.512.14.233.373.368t.516.135q.152 0 .318-.047.169-.051.322-.14z"/><use x="-2.224" href="#E"/><path d="M16.684 20.325h2.172v.495h-1.604v.732h1.439v.495h-1.439v.745h1.655v.495h-2.222z"/><use href="#F"/><use x="2.398" href="#F"/></g></g><text xml:space="preserve" x="-355.537" y="24.113" fill="#eee" font-family="Montserrat" font-size="8.467" font-weight="500" text-anchor="middle"><tspan x="-257.488" y="-71.03">ORD</tspan></text><defs><path id="B" d="M.728 18.521v4.167a2.77 2.77 0 0 0 2.778 2.778h19.447a2.77 2.77 0 0 0 2.778-2.778v-4.167z"/><path id="C" d="M7.325 20.325h2.417v.504h-.923v2.46h-.572v-2.46h-.923z"/><path id="D" d="M14.301 20.287q.44 0 .8.199.364.199.572.546.207.347.207.77t-.207.775q-.207.347-.572.55-.36.203-.8.203t-.804-.203q-.36-.203-.567-.55-.207-.351-.207-.775 0-.423.207-.77t.567-.546q.364-.199.804-.199m.008.508q-.271 0-.504.135-.233.131-.368.364-.135.229-.135.508t.135.512q.14.233.368.368.233.135.504.135.267 0 .495-.135.229-.135.36-.368.135-.233.135-.512t-.135-.508q-.131-.233-.36-.364-.229-.135-.495-.135"/><path id="E" d="m17.968 23.289-.512-.876q-.034.004-.106.004h-.669v.872h-.567v-2.963h1.236q.576 0 .889.267t.313.754q0 .347-.152.593-.148.246-.436.368l.652.982zm-1.287-1.372h.669q.322 0 .491-.14t.169-.415q0-.271-.169-.406t-.491-.135h-.669z"/><path id="F" d="M21.077 21.087q-.229-.14-.47-.216-.237-.076-.419-.076-.203 0-.322.076t-.119.212q0 .123.08.207.085.08.207.135.127.051.343.114.301.089.491.178.195.089.33.262.135.174.135.457 0 .271-.148.474-.144.199-.402.305-.254.106-.584.106-.347 0-.677-.127-.33-.131-.576-.347l.237-.483q.224.207.504.326.279.119.521.119.237 0 .373-.089.135-.093.135-.25 0-.127-.085-.207-.08-.085-.207-.135-.127-.051-.347-.114-.301-.089-.491-.174-.191-.085-.326-.254-.135-.174-.135-.453 0-.258.135-.449.14-.195.389-.301.254-.106.584-.106.288 0 .567.085.284.085.504.229z"/></defs></svg>