<svg xmlns:xlink="http://www.w3.org/1999/xlink" width="200" height="200" viewBox="0 0 52.917 52.917"><defs/><g transform="matrix(2 0 0 2 0 0)"><rect width="26.458" height="26.458" fill="#222" rx="1.984"/><rect width="23.813" height="23.813" x="1.323" y="1.323" fill="#f44336" rx="1.323"/><g fill="#222"><path d="M11.252 2.693a1.16 1.16 0 0 0-1.068.682c-.076.165-.095.266-.094.498.001.237.022.331.105.492.102.197.283.396.467.51.074.046.174.078.273.104l.111.031.006.133.008.563-.008.629-.242-.063-.676-.205c-.988-.319-1.593-.428-2.018-.314-.163.043-.295.096-.451.211s-.34.288-.646.586c-.233.227-.391.363-.515.437s-.213.095-.35.096c-.085.001-.104-.009-.098-.002-.002-.012-.006-.029-.006-.063v-.234h-.598v.131l-.082-.041c-.098-.055-.207-.125-.267-.174l-.15-.123c-.037-.029-.048-.05-.113-.068-.008-.002-.017-.003-.029-.004s-.042.004-.043.004-.046.021-.047.022l-.019.019s-.01.011-.014.018c-.03.05-.023.074-.021.092.002.036.008.062.013.096.06.384.342.77.691.947l.082.041v.175h-.447l-.17.529-.381 1.168-.58 1.774-.576 1.766-.209.633H1.814l.293.344c.597.702 1.289 1.073 2.393 1.289.375.074.474.08 1.193.08s.818-.006 1.188-.08c1.036-.207 1.814-.61 2.334-1.223l.328-.389-.75-.021-.402-.012-.037-.119-.227-.697-.338-1.061-.234-.728-.299-.928-.484-1.504-.262-.816-.326-.012-.117-.004v-.022l.258-.012.303-.021c.089-.009.15-.015.205-.031a3.19 3.19 0 0 0 .912-.447c.248-.164.393-.253.504-.295a.74.74 0 0 1 .346-.037c.274.015.424.074 1.006.398l.557.301c.256.128.679.274.902.301l.037.004-.021 1.541-.02 1.625-.305.615-.332.668.021 1.945.02 1.789H8.708v.781l-.385.635-.641 1.057-.287.479-.135.264h4.143l2.783-.008.848-.008.233-.004.062-.002.024-.002a.25.25 0 0 0 .043-.014l.033-.021.039-.092-.002-.024-.01-.029c-.003-.008-.007-.013-.01-.018l-.018-.031-.055-.082-.176-.246-.399-.543-.215-.291-.428-.582-.346-.473v-.744l-.887-.01-.641-.006-.013-1.824-.014-1.978-.082-.145a22 22 0 0 1-.309-.629l-.234-.492V8.039l.096-.018c.376-.073.677-.211 1.525-.684.479-.267.745-.339 1.012-.303.151.02.293.09.725.377.476.316.901.462 1.363.463l.107.004v.035c-.018.001-.042.004-.127.004h-.317l-.09.248-.399 1.219-.478 1.467-.479 1.467-.424 1.293-.055.162-.453.008-.785.012.225.303c.364.493 1.028.929 1.738 1.154.94.298 2.177.351 3.199.138.447-.093.744-.196 1.148-.394.466-.228.783-.48 1.141-.908l.25-.299H19.39l-.033-.098-.24-.744-.232-.728-.217-.668-.246-.769-.723-2.26-.191-.602h-.447v-.037c0-.045.003-.058.004-.071.468-.163.831-.572.918-1.046l.088-.479-.44.353a2.7 2.7 0 0 1-.34.217c-.095.053-.164.08-.23.107v-.18h-.598v.236c0 .034-.004.051-.006.062-.011 0-.026.001-.058-.006-.105-.02-.188-.053-.305-.135s-.265-.214-.477-.422c-.342-.335-.559-.532-.769-.65s-.411-.145-.672-.145c-.474.001-.796.07-1.68.353l-.701.209-.244.065-.004-.088v-.565l.006-.711.035-.01c.327-.097.574-.317.729-.645.074-.157.096-.261.096-.471s-.022-.314-.098-.48c-.206-.454-.638-.688-1.066-.689zm5.193 5.853.014.348.008 2.244-.006 1.906-.006.59-.002.139c-.02.002-.028.004-.066.006l-.816.008c-.372 0-.618-.002-.768-.008l-.058-.004.006-.02.103-.326.602-1.832.574-1.768.416-1.283zm-11.008.059.008 2.555.008 2.627h-.861a34 34 0 0 1-.699-.006l-.144-.006.016-.053.145-.455.551-1.685.574-1.758.338-1.031.066-.187zm.637.004c.009.021.01.021.021.051l.41 1.25.479 1.498.479 1.496.279.871-.129.006-.682.006c-.429 0-.673-.002-.805-.008l-.063-.006-.002-.138-.006-.59-.006-1.906.016-2.461c.003-.055.003-.036.008-.068zm11.01.008.334 1.031.652 2.035.523 1.639.131.422.01.033-.031.002-.789.008h-.85v-2.621l.016-2.51z"/><path d="M.728 18.521v4.167a2.77 2.77 0 0 0 2.778 2.778h19.447a2.77 2.77 0 0 0 2.778-2.778v-4.167z"/></g><path fill="#eee" d="M2.736 20.325h2.172v.495H3.303v.732h1.439v.495H3.303v.745h1.655v.495H2.736zm5.889 3.302q-.169.152-.389.237-.22.089-.432.089-.279 0-.521-.165-.241-.161-.411-.457-.44 0-.8-.203t-.567-.55q-.207-.351-.207-.775 0-.423.207-.77t.567-.546q.364-.199.804-.199t.8.199q.364.199.571.546t.207.77q0 .33-.131.622-.127.288-.36.5t-.538.317q.224.237.444.237.229 0 .533-.237zm-2.747-1.825q0 .279.135.512.14.233.368.368.233.135.504.135.267 0 .495-.135.229-.135.36-.368.135-.233.135-.512t-.135-.508q-.131-.233-.36-.364-.229-.135-.495-.135-.271 0-.504.135-.233.131-.368.364-.135.229-.135.508m3.621.267q0 .351.199.55t.533.199.525-.199q.195-.199.195-.55v-1.744h.567v1.744q0 .385-.157.673-.157.284-.449.436-.288.152-.682.152-.398 0-.694-.152-.292-.152-.449-.436-.157-.288-.157-.673v-1.744h.567zm4.797 1.22-.262-.627h-1.448l-.262.627h-.588l1.3-2.963h.588l1.283 2.963zm-1.507-1.113h1.041l-.516-1.245zm2.473-1.851h.567v2.451h1.278v.512h-1.846zm2.29 0h.567v2.963h-.567zm.968 0h2.417v.504h-.923v2.46h-.572v-2.46h-.923zm5.203 0-1.079 1.994v.969h-.567v-.948l-1.105-2.015h.576l.809 1.393.796-1.393z" text-anchor="middle"/></g><text xml:space="preserve" x="-355.537" y="24.113" fill="#eee" font-family="Montserrat" font-size="8.467" font-weight="500" text-anchor="middle"><tspan x="-315.928" y="-68.298">ORD</tspan></text></svg>