<svg width="200" height="200" viewBox="0 0 52.917 52.917"><g transform="matrix(2 0 0 2 0 0)"><rect width="26.458" height="26.458" fill="#222" rx="1.984"/><rect width="23.813" height="23.813" x="1.323" y="1.323" fill="#03a9f4" rx="1.323"/><g fill="#222"><path d="m11.614 2.553-.749.023c-1.911.176-3.58.855-5.051 2.055a11.9 11.9 0 0 0-1.207 1.205c-1.185 1.439-1.871 3.097-2.061 4.979-.038.382-.044 1.215-.01 1.586.179 1.941.88 3.638 2.113 5.119a11 11 0 0 0 .531.567c.489.489.867.8 1.426 1.172 1.264.84 2.782 1.362 4.287 1.471l.359.025c.211.015.896-.007 1.199-.035 1.138-.105 2.198-.406 3.225-.918a9.1 9.1 0 0 0 4.945-6.838c.07-.493.092-.81.092-1.328-.001-1.02-.149-1.927-.471-2.889a9.11 9.11 0 0 0-1.666-2.961 12 12 0 0 0-1.098-1.098c-1.492-1.238-3.175-1.932-5.117-2.111-.167-.015-.458-.023-.749-.023zM9.488 3.984c-.455.498-.953 1.151-1.334 1.781a13.8 13.8 0 0 0-.627 1.199l-.072.156-.027-.01-.307-.137-.742-.375-.471-.275-.148-.094.06-.068a8.04 8.04 0 0 1 2.152-1.613c.448-.232 1.013-.424 1.516-.565zm4.246.002c1.222.337 2.425.977 3.324 1.832l.365.361.045.049-.152.098-.434.258-.515.266-.512.236-.082.035-.024-.055c-.125-.281-.499-1.008-.631-1.228-.398-.663-.899-1.317-1.385-1.852zm-2.684.01.004.367.004 1.529v2.039h-.031c-.426-.007-1.255-.121-1.838-.256l-.551-.143-.119-.039.088-.191.246-.488c.471-.871.959-1.55 1.627-2.264l.453-.447zm1.127 0 .072.065.385.371a10.38 10.38 0 0 1 1.734 2.369l.244.49.096.205-.141.043c-.651.184-1.387.319-2.074.377l-.324.018V5.891l.006-1.584zM5.055 7.115l.088.055c.559.363 1.253.728 1.855.976l.063.029-.049.16c-.263.856-.446 1.886-.487 2.752l-1.443.004-1.43.004.004-.061a7.4 7.4 0 0 1 .111-.851c.137-.743.405-1.52.752-2.188a8.9 8.9 0 0 1 .535-.881zm13.113.006c.56.828.957 1.666 1.186 2.58.116.462.215 1.132.219 1.395H18.15c-.426 0-.815 0-1.098-.002l-.336-.004a13.6 13.6 0 0 0-.264-1.854l-.285-1.06.064-.029c.597-.247 1.297-.616 1.854-.976l.082-.049zM15.152 8.41c.034-.011.043.008.11.218a10.6 10.6 0 0 1 .436 2.432l.005.153-1.82.004c-1.447.004-1.822 0-1.829-.018-.005-.012-.007-.524-.004-1.137l.005-1.114.18-.013c.9-.065 1.544-.162 2.233-.337zm-7.025.135c.86.265 1.799.44 2.85.514l.072.006v2.024l-1.693.004H8.018l-.359-.006a.72.72 0 0 1 .002-.149l.055-.527c.069-.556.218-1.258.371-1.744l.041-.121zm-4.475 3.664h2.866l.029.379a11.4 11.4 0 0 0 .461 2.459l.029.094-.127.055a12.4 12.4 0 0 0-1.795.959l-.063.041-.014-.018-.176-.266-.398-.703c-.438-.873-.756-2.03-.808-2.939zm3.992 0 1.697.004 1.707.006v2.022l-.072.006c-1.034.072-1.819.207-2.719.467l-.088.026-.072.019-.031-.098-.131-.476a10.77 10.77 0 0 1-.287-1.897zm7.94 0-.004.078c-.046.784-.189 1.597-.414 2.363l-.033.111c-.835-.265-1.836-.445-2.871-.516l-.082-.006v-2.024l1.707-.004zm1.125 0h2.865c-.001.051-.01.184-.024.301-.152 1.313-.574 2.481-1.289 3.563l-.084.123-.033-.021a12.6 12.6 0 0 0-1.826-.978l-.127-.055.029-.094c.249-.819.428-1.795.471-2.578l.018-.26zm-5.651 3.164v2.191l-.004 1.453-.002.385-.393-.377a10.29 10.29 0 0 1-1.894-2.613l-.211-.439-.071-.155.043-.016.484-.129c.62-.154 1.388-.27 1.926-.295zm1.111 0 .117.006c.33.015.806.07 1.225.144l.873.194.342.094.02.006-.119.264a10.57 10.57 0 0 1-2.334 3.213l-.115.106-.002-.051-.006-1.893zm-4.748.826.051.11c.476 1.089 1.171 2.135 1.961 3.023l-.42-.133a8.01 8.01 0 0 1-2.656-1.537c-.06-.052-.238-.226-.395-.383l-.203-.205.228-.143.678-.379.479-.233.277-.121zm8.385 0a6.8 6.8 0 0 1 .516.235l.746.396.402.244-.152.158-.361.348c-.869.793-1.999 1.384-3.135 1.709.781-.888 1.46-1.899 1.934-2.98l.051-.11z"/><path d="M.728 18.521v4.167a2.77 2.77 0 0 0 2.778 2.778h19.447a2.77 2.77 0 0 0 2.778-2.778v-4.167z"/></g><path fill="#eee" d="M8.217 21.854h.495v1.126q-.233.174-.55.284-.318.106-.622.106-.436 0-.796-.203-.356-.203-.563-.55-.207-.351-.207-.775 0-.423.212-.766.212-.347.576-.546.368-.203.813-.203.318 0 .627.114t.533.313l-.322.419q-.169-.161-.394-.25-.22-.089-.445-.089-.279 0-.516.135-.233.131-.368.364t-.135.508q0 .279.135.512.14.233.373.368t.516.135q.152 0 .318-.047.169-.051.322-.14zm1.106-1.491h.567v2.451h1.278v.512H9.323zm3.629-.038q.44 0 .8.199.364.199.572.546.207.347.207.77t-.207.775q-.207.347-.572.55-.36.203-.8.203t-.804-.203q-.36-.203-.567-.55-.207-.351-.207-.775 0-.423.207-.77t.567-.546q.364-.199.804-.199m.008.508q-.271 0-.504.135-.233.131-.368.364-.135.229-.135.508t.135.512q.14.233.368.368.233.135.504.135.267 0 .495-.135.229-.135.36-.368.135-.233.135-.512t-.135-.508q-.131-.233-.36-.364-.229-.135-.495-.135m2.571 1.997.678-.008a1.63 1.63 0 0 0 .442-.06c.145-.05.217-.139.218-.299s-.063-.251-.218-.303a1.92 1.92 0 0 0-.442-.064c-.087-.003-.669 0-.669 0v1.234h-.567v-2.963h1.236c.384 0 .68.089.889.267s.313.271.313.596a.69.69 0 0 1-.149.395c-.097.125-.29.222-.29.222a1.05 1.05 0 0 0 .29.228.7.7 0 0 1 .149.389c-.001.214-.05.408-.314.595s-.524.255-.889.27l-.668.002zm.009-1.234h.669a1.47 1.47 0 0 0 .442-.061c.143-.052.216-.144.218-.306s-.072-.252-.218-.303-.363-.062-.442-.064c-.159-.003-.669 0-.669 0zm2.432-1.187h2.172v.495H18.54v.732h1.439v.495H18.54v.745h1.655v.495h-2.222z" paint-order="stroke fill markers"/></g></svg>