<svg xmlns="http://www.w3.org/2000/svg" width="200" height="200" viewBox="0 0 52.917 52.917" xmlns:v="https://vecta.io/nano"><g transform="scale(2)"><rect width="26.458" height="26.458" fill="#222" rx="1.984"/><rect width="23.813" height="23.813" x="1.323" y="1.323" fill="#00897b" rx="1.323"/><g fill="#222"><path d="M.728 18.521v4.167a2.772 2.772 0 0 0 2.778 2.778h19.447a2.772 2.772 0 0 0 2.778-2.778v-4.167z"/><path d="M9.402 18.521l-.018-.806-.613-.102c-.657-.109-1.529-.363-2.002-.582-.775-.36-1.573-1.094-1.849-1.702-.146-.321-.176-.476-.175-.89.002-.598.15-.938.554-1.271.418-.344.896-.507 1.503-.512.594-.005.968.115 1.36.438 1.278 1.053.584 2.796-1.181 2.968l-.414.04.18.171c.342.326 1.114.627 2.076.809.664.126.594.427.594-2.557v-2.622l-.339-.142-.9-.376c-1.446-.606-2.457-1.493-2.834-2.488-.295-.779-.207-2.047.2-2.866.566-1.139 1.882-2.007 3.502-2.312l.371-.07V2.129h.517v1.472h1.292V2.129h.581v.766c0 .421.022.766.048.766.214.002.953.148 1.353.267 1.647.49 2.623 1.357 2.716 2.413.041.467-.089.824-.425 1.162-.38.383-.662.486-1.335.487-.532 0-.611-.015-.935-.182a1.63 1.63 0 0 1-.845-1.048c-.069-.28-.062-.364.057-.723.143-.428.281-.585.765-.872.202-.12.36-.162.629-.169.198-.005.359-.029.36-.053.002-.155-1.026-.568-1.711-.688a43 43 0 0 1-.533-.096l-.146-.028.017 2.42.017 2.419.634.227c1.371.492 2.561 1.115 3.2 1.675.884.776 1.162 1.294 1.217 2.272.061 1.073-.157 1.861-.735 2.663-.522.723-1.274 1.201-2.433 1.547a9.27 9.27 0 0 1-1.308.279l-.607.07v1.625h-.581v-1.59H9.933v1.59H9.42zm1.58-1.313l.242-.001v-4.699l-.582-.212-.646-.212c-.041 0-.064.904-.064 2.559V17.2l.274.024a2.34 2.34 0 0 0 .404.004c.071-.011.238-.02.371-.02zm1.532-.34c.486-.209 1.051-.71 1.232-1.093a2.06 2.06 0 0 0 .005-1.539c-.274-.565-.727-.944-1.621-1.357l-.325-.15v4.373l.175-.04c.097-.022.336-.109.533-.194M11.225 6.429V4.073l-.404.001c-.222 0-.513.017-.647.037l-.243.037.017 2.123.017 2.123.161.043.614.193.468.153c.009.001.016-1.058.016-2.354m-1.808-.206c0-2.178.04-2.052-.554-1.742-.484.253-.95.746-1.09 1.153-.239.692-.043 1.309.591 1.863.237.207.905.63 1.004.636.027.002.048-.858.048-1.911"/></g><path d="M2.843 20.51h.648l.982 1.909.974-1.909h.648v2.963h-.521v-2.125l-.923 1.82h-.364l-.927-1.82v2.125h-.516zm6.17 2.963l-.262-.626H7.303l-.262.627h-.589l1.3-2.963h.588l1.283 2.963zM7.506 22.36h1.041l-.516-1.245zm4.327 1.113l-.512-.876q-.034.004-.106.004h-.669v.872h-.567V20.51h1.236q.576 0 .889.267.313.267.313.753 0 .347-.152.593-.148.245-.436.368l.652.982zm-1.287-1.372h.669q.322 0 .491-.14.169-.14.169-.415 0-.271-.169-.406-.169-.136-.491-.136h-.669zm5.138 1.372h-.682l-.931-1.27-.466.512v.758h-.567V20.51h.567v1.477l1.338-1.477h.669l-1.139 1.253zm.43-2.963h2.172v.495h-1.604v.732h1.439v.495h-1.439v.745h1.655v.495h-2.222zm2.464 0h2.417v.504h-.923v2.459h-.572v-2.459h-.923zm4.682.762q-.229-.14-.47-.216-.237-.076-.419-.076-.203 0-.322.076-.119.076-.119.212 0 .123.08.207.085.08.207.136.127.051.343.114.3.089.491.178.195.089.33.262.136.174.136.457 0 .271-.148.474-.144.199-.402.305-.254.106-.584.106-.347 0-.677-.127-.33-.131-.576-.347l.237-.483q.224.207.504.326.279.119.521.119.237 0 .373-.089.135-.093.135-.25 0-.127-.085-.207-.081-.085-.207-.136-.127-.051-.347-.114-.301-.089-.491-.174-.191-.085-.326-.254-.135-.174-.135-.453 0-.258.136-.449.14-.195.389-.3.254-.106.584-.106.288 0 .567.085.284.085.504.229z" fill="#eee" letter-spacing="0" paint-order="stroke fill markers"/></g></svg>