<svg xmlns:xlink="http://www.w3.org/1999/xlink" width="200" height="200" viewBox="0 0 52.917 52.917"><g transform="matrix(2 0 0 2 0 0)"><rect width="26.458" height="26.458" fill="#222" rx="1.984"/><rect width="23.813" height="23.813" x="1.323" y="1.323" fill="#ff9800" rx="1.323"/><g fill="#222"><path d="M9.195 3.115c1.057.001 1.623.29 2.252 1.149 1.303 1.78 1.664 2.024 2.993 2.024 1.131 0 2-.247 4.532-1.29.291-.12.743 2.338.988 5.385l.145 1.791-.744.326c-2.032.891-3.802 1.224-4.828.91-.6-.184-1.07-.659-1.906-1.925-.716-1.085-1.607-1.421-3.097-1.166-.961.164-2.793.777-2.822.944-.011.062.432 2.123.983 4.581l.913 4.068a9.447 11.252 47.501 0 1-1.241-.123c-.122-.833-.591-3.045-1.574-7.461L4.119 4.25c.116-.396.416-.504.708-.253l.247.212.728-.288c1.286-.509 2.541-.808 3.392-.807zM5.374 5.057c-.011 0-.02.003-.027.01-.027.024.219 1.239.546 2.7.398 1.778.627 2.598.694 2.479.055-.098.148-.58.207-1.07.132-1.097-.011-2.063-.43-2.908-.267-.538-.826-1.213-.99-1.211"/><path d="M.728 18.521v4.167a2.77 2.77 0 0 0 2.778 2.778h19.447a2.77 2.77 0 0 0 2.778-2.778v-4.167z"/></g><g fill="#eee" paint-order="stroke fill markers"><use href="#a"/><path d="m10.789 23.289-.262-.627H9.079l-.262.627h-.588l1.3-2.963h.588l1.283 2.963zm-1.507-1.113h1.041l-.516-1.245zm1.845-1.851h2.417v.504h-.923v2.46h-.572v-2.46h-.923zm2.819 0h.567v2.963h-.567zm2.644-.038q.44 0 .8.199.364.199.572.546.207.347.207.77t-.207.775q-.207.347-.572.55-.36.203-.8.203t-.804-.203q-.36-.203-.567-.55-.207-.351-.207-.775 0-.423.207-.77t.567-.546q.364-.199.804-.199m.009.508q-.271 0-.504.135-.233.131-.368.364-.135.229-.135.508t.135.512q.14.233.368.368.233.135.504.135.267 0 .495-.135.229-.135.36-.368.135-.233.135-.512t-.135-.508q-.131-.233-.36-.364-.229-.135-.495-.135"/><use x="13.411" href="#a"/></g></g><defs><path id="a" d="M7.322 20.325h.55v2.963h-.538l-1.524-2.04v2.04h-.555v-2.963h.538l1.528 2.045z"/></defs></svg>