<svg xmlns:xlink="http://www.w3.org/1999/xlink" width="200" height="200" viewBox="0 0 52.917 52.917"><g transform="matrix(2 0 0 2 0 0)"><rect width="26.458" height="26.458" fill="#222" rx="1.984"/><rect width="23.813" height="23.813" x="1.323" y="1.323" fill="#9c27b0" rx="1.323"/><g fill="#222"><path d="M10.805 3.447a.159.159 0 0 0-.136.115v.003c-.528.075-1.027.401-1.48 1.127-.477.775-.836 1.889-1.111 3.276-1.296-.448-2.424-.7-3.336-.684-.959.017-1.626.262-1.926.787v.003a1.3 1.3 0 0 0-.154.635c0 .421.155.892.448 1.418.433.8 1.208 1.657 2.242 2.565-1.051.924-1.836 1.787-2.268 2.58v.002c-.275.525-.422.986-.422 1.39a1.3 1.3 0 0 0 .154.635v.003c.291.517.944.766 1.886.799h.003c.914.024 2.054-.234 3.372-.696.274 1.348.623 2.453 1.087 3.236v.002c.5.826 1.051 1.282 1.659 1.282.601 0 1.143-.457 1.635-1.282v-.002c.464-.784.816-1.888 1.09-3.238 1.33.458 2.473.711 3.381.687.941-.025 1.594-.269 1.886-.785v-.003c.113-.189.169-.41.169-.652 0-.404-.146-.86-.422-1.377v-.002c-.443-.797-1.234-1.657-2.294-2.579 1.036-.909 1.823-1.768 2.27-2.575h-.003c.292-.518.448-.98.448-1.394 0-.242-.056-.463-.169-.652-.301-.525-.969-.768-1.935-.785-.91-.016-2.04.236-3.339.682-.275-1.385-.632-2.498-1.108-3.273-.492-.801-1.025-1.244-1.61-1.244a.2.2 0 0 0-.016 0zm.016.937c.15 0 .308.068.483.232s.36.425.546.78c.346.655.624 1.638.839 2.868l-1.865.818-1.893-.818c.215-1.231.492-2.213.839-2.868.185-.355.372-.616.55-.78s.341-.232.502-.232zM4.764 8.13l.289.006c.747.038 1.718.287 2.856.705l-.22 2.036-1.65 1.214c-.938-.776-1.643-1.494-2.05-2.128V9.96c-.221-.339-.355-.631-.408-.869s-.029-.415.056-.558l.003-.003c.078-.137.217-.243.45-.314a2.47 2.47 0 0 1 .674-.087zm12.103 0c.273.004.499.034.676.087.234.071.377.177.459.314.082.142.107.319.052.558s-.192.532-.413.872v.003c-.407.641-1.116 1.363-2.062 2.139l-1.649-1.216-.232-2.046c1.138-.417 2.114-.667 2.878-.705h.002l.29-.006zm-4.036 1.043.112 1.08-.527-.328-.007-.004-.57-.309.991-.438zm-4.042.009.991.431-.56.309-.005.002-.541.33.115-1.073zm2.006.937 1.141.614 1.092.661.033 1.296-.033 1.286-1.092.658-.002.002-1.115.623-1.12-.623-.007-.002-1.101-.658-.021-1.286.021-1.296 1.103-.661h.002zm.025 1.485c-.189 0-.371.05-.539.143a.95.95 0 0 0-.403.391c-.094.169-.143.355-.143.55a1.11 1.11 0 0 0 .143.541l.002.002a1.05 1.05 0 0 0 .4.387 1.1 1.1 0 0 0 .539.143c.182 0 .361-.05.528-.143a1.05 1.05 0 0 0 .4-.387l.002-.002a1.11 1.11 0 0 0 .143-.541c0-.196-.049-.381-.143-.55a.95.95 0 0 0-.403-.391c-.167-.093-.345-.143-.528-.143zm-3.184.441-.007.644.007.635-.881-.635zm6.347 0 .891.644-.891.635.017-.635zM6.03 13.278l1.659 1.216.22 2.034c-1.161.425-2.145.675-2.891.705-.399.016-.714-.016-.944-.087s-.367-.176-.445-.309-.1-.306-.047-.541.183-.528.396-.867l.003-.002c.383-.631 1.09-1.357 2.05-2.149zm9.559 0c.961.792 1.673 1.518 2.064 2.151v.002c.217.339.35.63.403.865s.029.405-.051.539v.003c-.078.134-.218.238-.448.309s-.546.103-.944.087c-.747-.03-1.735-.28-2.903-.705l.221-2.034 1.658-1.216zm-6.914 1.834.546.335.56.309-.994.438zm4.269.002-.112 1.08-.991-.438.57-.309.002-.002.532-.33zm-2.148 1.172 1.895.829c-.207 1.202-.482 2.172-.829 2.844v.003c-.181.359-.367.622-.544.787s-.337.234-.497.234-.33-.071-.511-.237-.368-.428-.553-.787c-.347-.672-.622-1.642-.829-2.844z" text-anchor="middle"/><path d="M.728 18.521v4.167a2.77 2.77 0 0 0 2.778 2.778h19.447a2.77 2.77 0 0 0 2.778-2.778v-4.167z"/></g><g fill="#eee" text-anchor="middle"><path d="M3.761 20.325q.559 0 .864.267.309.267.309.754 0 .508-.309.792-.305.279-.864.279h-.648v.872h-.567v-2.963zm-.03 1.592q.322 0 .491-.14.174-.14.174-.415 0-.271-.174-.406-.169-.135-.491-.135h-.618v1.096z"/><use href="#B"/><path d="M9.283 20.287q.44 0 .8.199.364.199.572.546.207.347.207.77t-.207.775q-.207.347-.572.55-.36.203-.8.203t-.804-.203q-.36-.203-.567-.55-.207-.351-.207-.775 0-.423.207-.77t.567-.546q.364-.199.804-.199m.008.508q-.271 0-.504.135-.233.131-.368.364-.135.229-.135.508t.135.512q.14.233.368.368.233.135.504.135.267 0 .495-.135.229-.135.36-.368.135-.233.135-.512t-.135-.508q-.131-.233-.36-.364-.229-.135-.495-.135"/><path d="M13.007 21.815h.495v1.126q-.233.174-.55.284-.318.106-.622.106-.436 0-.796-.203-.356-.203-.563-.55-.207-.351-.207-.775 0-.423.212-.766.212-.347.576-.546.368-.203.813-.203.318 0 .627.114t.533.313l-.322.419q-.169-.161-.394-.25-.22-.089-.444-.089-.279 0-.516.135-.233.131-.368.364t-.135.508q0 .279.135.512.14.233.373.368t.516.135q.152 0 .318-.047.169-.051.322-.14z"/><use x="8.748" href="#B"/><path d="M16.684 20.325h2.172v.495h-1.604v.732h1.439v.495h-1.439v.745h1.655v.495h-2.222z"/><use href="#C"/><use x="2.398" href="#C"/></g></g><text xml:space="preserve" x="-355.537" y="24.113" fill="#eee" font-family="Montserrat" font-size="8.467" font-weight="500" text-anchor="middle"><tspan x="-257.488" y="-71.03">ORD</tspan></text><defs><path id="B" d="m6.996 23.289-.512-.876q-.034.004-.106.004h-.669v.872h-.567v-2.963h1.236q.576 0 .889.267t.313.754q0 .347-.152.593-.148.246-.436.368l.652.982zm-1.287-1.372h.669q.322 0 .491-.14t.169-.415q0-.271-.169-.406t-.491-.135h-.669z"/><path id="C" d="M21.077 21.087q-.229-.14-.47-.216-.237-.076-.419-.076-.203 0-.322.076t-.119.212q0 .123.08.207.085.08.207.135.127.051.343.114.301.089.491.178.195.089.33.262.135.174.135.457 0 .271-.148.474-.144.199-.402.305-.254.106-.584.106-.347 0-.677-.127-.33-.131-.576-.347l.237-.483q.224.207.504.326.279.119.521.119.237 0 .373-.089.135-.093.135-.25 0-.127-.085-.207-.08-.085-.207-.135-.127-.051-.347-.114-.301-.089-.491-.174-.191-.085-.326-.254-.135-.174-.135-.453 0-.258.135-.449.14-.195.389-.301.254-.106.584-.106.288 0 .567.085.284.085.504.229z"/></defs></svg>