<svg xmlns="http://www.w3.org/2000/svg" viewBox="0 0 52917 52917"><g transform="scale(2)"><rect fill="#222" width="26458" height="26458" rx="1984"/><rect fill="#f44336" width="23813" height="23813" x="1323" y="1323" rx="1323"/><g fill="#222"><path d="M11252 2694a1160 1160 0 00-1068 682c-76 165-95 266-94 498 1 237 22 330 105 492 102 197 283 396 467 510a1000 1000 0 00 273 104l111 30 6 134 8 563-8 629a6000 6000 0 01-242-63 18000 18000 0 01-676-205c-988-320-1593-428-2018-314-163 43-295 96-450 210s-340 289-647 587c-233 227-390 363-516 437a600 600 0 01-350 96c-85 1-104-9-98-2-2-12-6-29-6-63v-235h-598v131l-82-40a2000 2000 0 01-267-175l-150-123c-37-30-48-50-113-68l-29-4-43 4-47 22-19 20-14 24c-30 50-23 73-20 91 1 36 7 62 12 96 60 385 342 770 691 947l82 40v177h-447l-170 530-380 1168-580 1775-577 1765-209 633H1814l293 342c597 702 1289 1073 2393 1290 375 73 474 80 1194 80s818-7 1188-80c1036-209 1814-610 2334-1224l328-390-750-20-402-10-37-120-227-697-338-1060a51000 51000 0 00-234-728l-300-928-483-1504-262-816-320-12-116-5v-20l258-13a6000 6000 0 00 303-20c89-10 150-16 205-32 300-87 559-214 912-447 248-164 394-253 504-295A740 740 0 01 8600 7050c274 15 424 74 1006 398l556 300c256 130 680 275 902 302l37 4-20 1540-20 1626-307 615-332 668 20 1945 23 1790H8707v780l-385 635-640 1057-288 480-135 263h4143l2783-8 848-8 232-4 62-2 24-2 50-16 33-20 39-93-2-23-4-14-15-33-17-29-55-83a10000 10000 0 00-176-247l-400-543-214-290-428-583-346-473v-744l-887-10-641-6-14-1824-14-1978-82-145a23000 23000 0 01-310-629l-232-492V8040l96-18c376-72 677-210 1525-683 479-267 745-340 1012-303 150 20 293 90 725 377 476 316 900 462 1363 463l107 4v35c-18 0-42 4-127 4h-317l-90 248-400 1219-477 1467-480 1467-423 1293-55 163-453 8-786 13 226 303c364 493 1028 929 1738 1155 940 298 2177 350 3199 139A4400 4400 0 00 19159 15000c465-228 782-480 1139-908l250-300h-1160l-32-97a51000 51000 0 01-240-744l-232-728-217-668-246-770-723-2260-192-600h-447v-38c0-45 3-58 4-70 468-164 831-573 918-1047l94-480-440 354a3000 3000 0 01-340 217c-97 53-165 80-230 107v-180h-599v236c0 34-4 50-6 62-10 0-26 0-58-6-105-20-188-53-305-135s-265-214-477-422c-342-335-559-532-770-650s-410-146-672-145c-474 0-796 70-1680 353l-700 215-245 65-5-88a22000 22000 0 01 0-565l6-710 35-10a1160 1160 0 00 730-646c73-157 95-260 95-470s-22-315-98-480a1170 1170 0 00-1066-690m5193 5853 14 348 8 2243-6 1906-6 590-2 140-67 3-816 8a17460 17460 0 01-768-4l-58-4 6-20 103-326 601-1832 572-1767zm-11010 52 10 2555 7 2627h-862c-270 0-519-2-699-6l-144-6 20-53 144-450 550-1686 575-1758 338-1030a4000 4000 0 01 66-189m637 4 20 50 410 1250 478 1500 480 1496 278 870-130 8a30000 30000 0 01-680 7c-430 0-674-2-806-8l-63-7-2-140-6-590-6-1905 16-2462c3-55 3-36 8-70m11010 10 334 1030 652 2035 523 1640 131 421 10 33-30 4-790 8h-850v-2620l14-2510"/><path d="M728 18521v4167a2770 2770 0 00 2778 2778h19447a2770 2770 0 00 2778-2778v-4167"/></g><path d="M2736 20325h2172v495H3303v732h1439v495H3303v745h1655v495H2736zm5889 3302q-169 152-389 237-220 89-432 89-279 0-521-165-241-161-411-457-440 0-800-203t-567-550q-207-351-207-775 0-423 207-770t567-546q364-199 804-199t800 199q364 199 572 546t207 770q0 330-130 622-128 288-360 500t-539 317q224 237 444 237 230 0 533-237zm-2748-1825q0 279 136 512 140 233 368 368 233 135 504 135 267 0 495-135 229-136 360-368 136-233 136-512t-136-508q-131-233-360-364-229-136-495-136-271 0-504 136-233 131-368 364-136 229-136 508m3621 267q0 351 199 550t533 199 525-199q195-199 195-550v-1744h567v1744q0 385-157 673-157 284-449 436-288 152-682 152-398 0-694-152-292-152-449-436-157-288-157-673v-1752h567zm4798 1219-262-626h-1448l-262 627h-588l1300-2963h588l1283 2963zm-1507-1113h1041l-516-1245zm2473-1850h567v2451h1278v512h-1846zm2290 0h567v2963h-567zm968 0h2417v504h-923v2459h-572v-2459h-923zm5202 0-1079 1994v969h-567v-948l-1105-2015h576l808 1393 796-1393" fill="#eee" font-family="Montserrat" font-size="4233" font-weight="500" text-anchor="middle"/></g><text xml:space="preserve" fill="#eee" x="-355537" y="24113" font-family="Montserrat" font-size="8467" font-weight="500" text-anchor="middle"><tspan x="-315928" y="-68298">ORD</tspan></text></svg>
