<svg xmlns="http://www.w3.org/2000/svg" width="200" height="200" viewBox="0 0 52.917 52.917" xmlns:v="https://vecta.io/nano"><g transform="scale(2)"><rect width="26.458" height="26.458" fill="#222" rx="1.984"/><rect width="23.813" height="23.813" x="1.323" y="1.323" fill="#03a9f4" rx="1.323"/><g fill="#222"><path d="M11.614 2.553l-.749.023c-1.911.176-3.58.855-5.051 2.055-.316.258-.939.881-1.207 1.205-1.185 1.439-1.871 3.097-2.061 4.979a11.56 11.56 0 0 0-.01 1.586c.179 1.941.88 3.638 2.113 5.119.102.122.336.371.531.567a8.42 8.42 0 0 0 1.426 1.172 9.04 9.04 0 0 0 4.287 1.471l.359.025c.211.015.896-.007 1.2-.035 1.137-.105 2.198-.406 3.225-.918a9.1 9.1 0 0 0 4.945-6.838c.07-.493.092-.81.092-1.328a8.83 8.83 0 0 0-.471-2.889c-.359-1.074-.914-2.058-1.666-2.961-.235-.283-.82-.867-1.098-1.098-1.492-1.238-3.175-1.932-5.117-2.111-.167-.015-.458-.023-.749-.023M9.488 3.984a11.92 11.92 0 0 0-1.334 1.781c-.185.306-.463.837-.627 1.199a9 9 0 0 1-.072.156l-.027-.01-.307-.137-.742-.375a14 14 0 0 1-.471-.275 7 7 0 0 1-.148-.094l.06-.069a8.04 8.04 0 0 1 2.152-1.613c.448-.232 1.014-.424 1.516-.565m4.246.002c1.222.337 2.425.977 3.324 1.832l.365.361.045.049-.152.098-.434.258-.515.266-.512.237-.082.035-.024-.055c-.125-.281-.498-1.008-.631-1.228-.398-.663-.899-1.317-1.385-1.852m-2.684.01l.004.367.004 1.529v2.039h-.031a10.88 10.88 0 0 1-1.838-.256 10 10 0 0 1-.551-.143l-.119-.039.088-.192.246-.488a10.3 10.3 0 0 1 1.627-2.264l.453-.447.117-.107m1.127 0l.072.065.385.371c.71.735 1.243 1.462 1.734 2.369l.244.49.096.205a3 3 0 0 1-.14.043c-.651.184-1.387.319-2.074.377l-.324.018V5.891l.006-1.584.002-.311M5.055 7.115l.088.055a12.15 12.15 0 0 0 1.855.977l.063.029-.049.16c-.263.856-.446 1.886-.487 2.752l-1.443.004-1.43.004.004-.061c.014-.232.053-.538.111-.851a8.05 8.05 0 0 1 .752-2.188c.155-.298.398-.688.535-.881m13.113.006c.56.828.957 1.666 1.186 2.58.116.462.215 1.132.219 1.395H18.15c-.426 0-.815 0-1.098-.002a35 35 0 0 1-.336-.004l-.018-.002c0-.405-.112-1.236-.246-1.852l-.285-1.06.064-.029a12.2 12.2 0 0 0 1.854-.976l.082-.049M15.152 8.41c.034-.011.043.008.11.218a10.6 10.6 0 0 1 .436 2.432l.005.153-1.82.004c-1.447.004-1.822 0-1.829-.018-.005-.012-.007-.524-.004-1.137l.005-1.114.18-.013c.9-.065 1.544-.162 2.233-.337l.684-.188m-7.025.135a12.57 12.57 0 0 0 2.85.514l.072.006v2.023l-1.693.004H8.018l-.359-.006a5 5 0 0 1 .002-.149l.054-.527a10.9 10.9 0 0 1 .371-1.744l.041-.121m-4.475 3.664h2.865l.029.379c.059.813.218 1.66.461 2.459l.029.094-.127.055c-.567.24-1.331.648-1.795.959l-.062.041-.014-.017a5 5 0 0 1-.176-.266l-.399-.703c-.438-.873-.756-2.03-.808-2.939zm3.992 0l1.697.004 1.707.006v2.021l-.072.006c-1.034.072-1.819.207-2.719.467l-.088.026-.072.019a3 3 0 0 1-.031-.098 10 10 0 0 1-.131-.476c-.148-.599-.25-1.274-.287-1.896zm7.94 0l-.004.078c-.046.784-.189 1.597-.414 2.363l-.033.111c-.835-.265-1.837-.445-2.871-.516l-.082-.006v-2.024l1.707-.004zm1.125 0h2.865a4.28 4.28 0 0 1-.024.301c-.152 1.313-.574 2.481-1.289 3.562l-.084.123-.033-.021a12.61 12.61 0 0 0-1.826-.979l-.127-.055.029-.094c.249-.819.428-1.795.471-2.578a9 9 0 0 1 .018-.26m-5.651 3.164v2.191l-.004 1.453-.002.385-.004-.004a14 14 0 0 1-.389-.373c-.77-.772-1.392-1.631-1.895-2.613a13 13 0 0 1-.211-.439l-.071-.155.043-.015.484-.129c.62-.154 1.388-.27 1.926-.295zm1.111 0l.117.006a10.58 10.58 0 0 1 1.225.144l.873.194.342.094.02.006-.119.264c-.544 1.177-1.386 2.334-2.334 3.213a13 13 0 0 1-.115.106l-.002-.051-.006-1.893zm-4.748.826l.051.11c.476 1.089 1.171 2.135 1.961 3.023a11 11 0 0 1-.42-.133 8.01 8.01 0 0 1-2.656-1.537c-.06-.052-.237-.226-.395-.383a17 17 0 0 1-.203-.205 6 6 0 0 1 .228-.143l.678-.379.479-.233a6 6 0 0 1 .277-.121m8.385 0a6.82 6.82 0 0 1 .516.235l.746.396.402.244-.152.158a12 12 0 0 1-.361.348c-.869.793-1.999 1.384-3.135 1.709.781-.888 1.46-1.899 1.934-2.98l.051-.11"/><path d="M.728 18.521v4.167a2.772 2.772 0 0 0 2.778 2.778h19.447a2.772 2.772 0 0 0 2.778-2.778v-4.167z"/></g><g fill="#eee" paint-order="stroke fill markers"><path d="M8.217 21.854h.495v1.126q-.233.174-.55.284-.317.106-.622.106-.436 0-.796-.203-.356-.203-.563-.55-.207-.351-.207-.775 0-.423.212-.766.212-.347.576-.546.368-.203.813-.203.317 0 .627.114.309.114.533.313l-.322.419q-.169-.161-.394-.25-.22-.089-.444-.089-.279 0-.516.136-.233.131-.368.364-.136.233-.136.508 0 .279.136.512.14.233.372.368.233.135.516.135.152 0 .317-.047.169-.051.322-.14z" letter-spacing="-.265"/><path d="M9.323 20.363h.567v2.451h1.278v.512H9.323zm3.629-.038q.44 0 .8.199.364.199.572.546.207.347.207.77 0 .423-.207.775-.207.347-.572.55-.36.203-.8.203-.44 0-.804-.203-.36-.203-.567-.55-.207-.351-.207-.775 0-.423.207-.77.207-.347.567-.546.364-.199.804-.199m.008.508q-.271 0-.504.136-.233.131-.368.364-.135.229-.135.508 0 .279.135.512.14.233.368.368.233.135.504.135.267 0 .495-.135.229-.136.36-.368.136-.233.136-.512 0-.279-.136-.508-.131-.233-.36-.364-.229-.136-.495-.136"/><path d="M15.531 22.83l.678-.008c.081 0 .298-.01.442-.059s.217-.139.218-.299-.064-.251-.218-.303a1.92 1.92 0 0 0-.442-.064c-.087-.003-.669 0-.669 0v1.234h-.567v-2.963h1.236q.576 0 .889.267c.209.178.313.271.313.596 0 .116-.052.27-.149.395s-.29.222-.29.222.192.101.29.228a.7.7 0 0 1 .149.389c0 .214-.05.408-.314.595s-.524.255-.889.27l-.668.002zm.009-1.234h.669c.084.002.299-.009.442-.061s.216-.144.218-.306-.072-.252-.218-.303-.363-.062-.442-.064c-.159-.003-.669 0-.669 0zm2.432-1.187h2.172v.495h-1.604v.732h1.439v.495h-1.439v.745h1.655v.495h-2.222z" letter-spacing="0"/></g></g></svg>