<svg xmlns="http://www.w3.org/2000/svg" viewBox="0 0 52917 52917"><g transform="scale(2)"><rect fill="#222" width="26458" height="26458" rx="1984"/><rect fill="#03a9f4" width="23813" height="23813" x="1323" y="1323" rx="1323"/><g fill="#222"><path d="m11614 2553-749 23c-1911 176-3580 855-5051 2055-316 258-939 881-1207 1205Q2830 7993 2546 10815a12000 12000 0 00-10 1586c179 1941 880 3638 2113 5119 102 122 336 371 531 567a8400 8400 0 00 1426 1172 9040 9040 0 00 4287 1471l359 25c211 15 896-7 1200-35a9000 9000 0 00 3225-918 9100 9100 0 00 4945-6838c70-493 92-810 92-1328a8800 8800 0 00-471-2889 9100 9100 0 00-1666-2961c-235-283-820-867-1098-1098-1497-1238-3181-1932-5123-2111a10000 10000 0 00-750-23m-2123 1430a12000 12000 0 00-1334 1780c-185 307-463 838-627 1200l-72 156-27-10-307-137-741-375a14000 14000 0 01-473-275l-148-94 60-70A8000 8000 0 01 7970 4547c448-232 1014-424 1516-565m4246 2c1222 337 2425 977 3324 1832l365 360 45 50-152 98-434 258-515 266-512 237-82 35-21-55a18000 18000 0 00-631-1228 12000 12000 0 00-1385-1852m-2684 10 4 367 4 1529V7930h-31a11000 11000 0 01-1838-256 10000 10000 0 01-551-143l-120-39 89-192 246-488a10300 10300 0 01 1627-2264l450-447 118-107m1126 0 72 65 385 371c710 735 1243 1462 1734 2369l244 490 96 199-140 44c-651 184-1387 319-2074 377l-324 18v-2040l6-1583 2-311m-7118 3120 88 55A12000 12000 0 00 7000 8146l62 29-50 160a12000 12000 0 00-486 2752l-1443 4-1430 4 4-61a7000 7000 0 01 110-851 8000 8000 0 01 753-2188c155-298 398-688 535-881m13113 6c560 828 957 1666 1186 2580 116 462 215 1132 219 1395H18150c-426 0-815 0-1098-2l-336-4-18-2c0-405-112-1236-246-1852l-285-1060 64-30a12000 12000 0 00 1854-975zm-3016 1290c34-11 43 8 110 218a10600 10600 0 01 436 2432l5 153-1820 4c-1447 4-1822 0-1829-18a36000 36000 0 01-4-1137l5-1114 180-13c900-65 1544-162 2233-337zm-7025 135a12600 12600 0 00 2850 514l72 6v2023l-1693 4H8018l-359-6v-150l51-526a11000 11000 0 01 371-1744zm-4475 3664h2865l29 379c59 813 218 1660 460 2459l30 94-127 55c-567 240-1331 648-1795 959l-62 40-14-16a5000 5000 0 01-176-272l-400-702c-437-874-755-2031-807-2941zm3992 0 1697 4 1707 6v2021l-72 6c-1034 72-1819 207-2719 467l-88 26-72 19-30-98a10000 10000 0 01-132-476 11000 11000 0 01-287-1896zm7940 0-4 78a10700 10700 0 01-414 2363l-33 110c-835-264-1837-444-2870-515l-83-6v-2024l1707-4zm1125 0h2865a4000 4000 0 01-24 301 8000 8000 0 01-1290 3562l-83 123-33-21a12600 12600 0 00-1826-979l-127-55 29-94a11640 11640 0 00 470-2578zm-5651 3164v2191l-4 1453-2 385-4-4a14000 14000 0 01-389-373 10300 10300 0 01-1895-2613 13000 13000 0 01-210-439l-72-155 43-15 484-130a11000 11000 0 01 1926-294zm1111 0 117 6a11000 11000 0 01 1225 144l873 194 342 94 20 6-119 264a10600 10600 0 01-2334 3213l-115 106-2-50-6-1894zm-4748 826 51 110a11700 11700 0 00 1961 3023 11000 11000 0 01-420-133 8000 8000 0 01-2656-1537 14000 14000 0 01-395-383l-203-205a6000 6000 0 01 228-143l678-379 479-233a6000 6000 0 01 277-121m8385 0a7000 7000 0 01 516 235l746 396 402 244-152 158a12000 12000 0 01-361 348c-870 793-2000 1384-3135 1709 780-888 1460-1899 1934-2980"/><path d="M728 18521v4167a2770 2770 0 00 2778 2778h19447a2770 2770 0 00 2778-2778v-4167"/></g><g fill="#eee" paint-order="stroke fill markers"><path d="M8217 21854h495v1126q-233 174-550 284-317 106-622 106-436 0-796-203-356-203-563-550-207-351-207-775 0-423 212-766 212-347 576-546 368-203 813-203 317 0 627 114 309 114 533 313l-322 419q-170-160-394-250-220-89-444-89-280 0-516 136-233 131-368 364-136 233-136 508 0 280 136 512 140 233 372 368 233 135 516 135 152 0 317-47 169-50 322-140" letter-spacing="-.265"/><path d="M9323 20363h567v2451h1278v512H9323zm3629-38q440 0 800 199 364 199 572 546t207 770-207 775q-207 347-572 550-360 203-800 203t-804-203q-360-203-567-550-207-351-207-775 0-423 207-770t567-546q364-199 804-199m8 508q-271 0-504 136-233 130-368 364-135 229-135 508t135 517q140 233 368 368 233 135 504 135 267 0 495-135 229-136 360-368 136-233 136-512t-131-508q-131-233-360-364-231-136-496-136"/><path d="m15531 22830 678-8c81 0 298-10 442-59s217-140 218-300-64-250-218-302a2000 2000 0 00-442-64c-87-3-669 0-669 0v1234h-567v-2963h1236q576 0 889 267c209 178 313 270 313 596 0 116-50 270-144 395s-290 222-290 222 192 100 290 228a700 700 0 01 149 389c0 214-50 408-314 595s-524 255-890 270l-667 2zm9-1234h670c83 2 298-10 440-61s217-144 220-306-73-252-220-303-362-62-440-64c-160-3-670 0-670 0zm2432-1187h2172v495H18540v732h1439v495H18540v745h1655v495h-2222" letter-spacing="0"/></g></g></svg>
