<svg xmlns="http://www.w3.org/2000/svg" viewBox="0 0 5292 5292"><defs><path d="M73 1852v417a277 277 0 00 278 278h1944a277 277 0 00 278-278v-417" fill="#222" id="a"/></defs><g transform="scale(2)"><rect fill="#222" width="2646" height="2646" rx="198"/><rect fill="#ffeb3b" width="2381" height="2381" x="132" y="132" rx="132"/><path d="M1083 2149a500 500 0 01-77-25 300 300 0 00-30-12 230 230 0 01-117-80 2250 2250 0 01-148-270 70 70 0 01 10-21c30-38 40-80 30-107a160 160 0 01 0-26c0-12 0-12-40-17a250 250 0 01-34 0c-8-1-10-2-10-20 0-10 2-15 4-20 2 0 3-10 0-34-7-108 4-155 49-203l10-10-20-50-75-190a800 800 0 01-20-102L600 910a250 250 0 01-3-45l-2-52-2-20-12 13c-14 15-30 24-42 20a70 70 0 01-22-13L502 800v-27a73 73 0 00-3-27c-6 0-4-37 0-45q10-14-2-30a36 36 0 01-8-15l-6-13c-5-10-5-10 0-30a150 150 0 00 6-32c0-12-1-13-17-19a70 70 0 01-43-37c-10-16-10-19-10-52s0-40 10-63c12-30 33-60 54-76 14-10 16-13 20-32a86 86 0 01 45-59c14-7 23-10 53-12l43-5c5-2 8 0 14 8 7 10 28 20 40 20 5 0 6 2 4 14-2 16 2 20 20 20a100 100 0 01 23 3c15 14 35 10 44 0 0-10 10-9 10 13 0 25-10 42-20 42s-30 11-40 21c-10 12-5 24 14 34 16 10 18 16 7 25-7 6-7 7 0 17 6 13 6 56 0 77-10 25-37 50-77 66l-20 10 13 20c28 41 40 71 50 121 10 50 28 102 57 160l71 157 16 50c0 3 0 5 2 5l151-27c2 0 10-56 10-66 0-6-13-13-77-46l-154-80s0-2 2-3 13 0 30 2l68 16 97 24 60 13c7 0 50-32 50-37a2924 2924 0 00-100-194 45 45 0 00-10-20v-8c0-6 10 3 81 83l66 72 28 30h60l10-43 22-117 15-76c1 0 4 37 10 134l4 91 2 23 25 10 28 10c2 0 150-137 165-154q20-19 15-4c0 4-3 7-5 7s-3 2-3 5 0 5-5 5-4 2-5 5c-2 6-14 28-25 44l-46 80-40 70 14 10 14 10 55-15 120-34 64-18c1 0-42 30-97 66l-100 70 10 30c10 20 10 30 10 70 0 47 3 50 13 70 10 20 12 30 13 56s-2 33-9 45c-10 18-10 20 2 32 8 6 20 11 40 17 57 15 110 41 130 62 20 21 30 47 33 82 10 65 12 327 14 375l2 48-20 38c-26 53-44 81-62 96a330 330 0 00-40 42 500 500 0 01-35 44 840 840 0 01-118 90 2300 2300 0 00-57 34 520 520 0 01-122 57c-24 8-60-207-80-200-33 12-80 22-100 21a200 200 0 01-26-4m32-818a55 55 0 00 14-36c0-10-3-12-17-18a150 150 0 01-33-24l-17-17-36 12c-45 13-46 17-20 41 14 12 27 20 44 25a300 300 0 01 40 17c14 10 13 10 22 1m-54-164a32 32 0 00-4-18l-6-13h-150l18 10a80 80 0 01 28 23 300 300 0 00 30 32l20 17 46-20c33-15 45-23 46-28" fill="#222"/><use href="#a"/><path d="M457 2032h57v246h128v50H457zm230 0h56v297h-57zm260 0q48 0 75 20 28 20 28 55 0 24-14 42-14 10-38 20 30 0 46 20 17 20 17 50 0 36-30 60-20 20-70 20H820v-290zm-2 122q22 0 34-10 13-10 13-27t-13-26q-12-10-34-10h-72v73zm0 126q27 0 42-10t15-30q0-18-15-28-15-11-42-10h-72v78zm171-247h217v50h-160v72h144v50h-144v74h165v50h-222zm465 296-51-88h-78v88h-56v-296h123q50 0 80 26t31 76q0 34-15 60-15 23-43 36l66 98zm-129-137h67q32 0 50-14t16-42q0-27-17-40-17-14-49-14h-67zm216-160h242v50h-92v247h-57v-246h-93zm520 0-107 200v97h-57v-95l-110-202h57l80 140 80-140" fill="#eee" font-family="Montserrat" font-size="423" font-weight="500" text-anchor="middle"/></g><g transform="matrix(2 0 0 2 34131 6667)"><rect fill="#222" width="2646" height="2646" rx="198"/><rect fill="#3f51b5" width="2381" height="2381" x="132" y="132" rx="132"/><path d="M1724 526a95 95 0 00-57 0c-25 8-30 13-43 64l-16 58a600 600 0 00-8 28 1000 1000 0 01-8 31l-20 73a500 500 0 01-7 23 1400 1400 0 00-10 36l-16 60-10 46a60 60 0 01-15 11 3300 3300 0 00-30 120q-8 38-6 72c0 13 10 32 20 43a35 35 0 00 24 14c12 3 15 3 30-3a70 70 0 00 30-16c18-15 20-19 44-107l22-80 8-26 6-23 8-28 16-50 14-52 7-27a300 300 0 01 7-24l48-175a50 50 0 00-2-26c-4-14-6-17-16-26a80 80 0 00-28-16M730 262a95 95 0 00-52-1 45 45 0 00-26 12c-8 8-10 14-24 60l-16 60-8 25-6 24a200 200 0 01-4 16l-32 116-14 52a1300 1300 0 00-10 35l-10 53a599 599 0 00-33 181 70 70 0 00 10 30 51 51 0 00 36 27 45 45 0 00 30-2c26-10 50-36 55-62a400 400 0 01 8-30l7-29A600 600 0 01 650 800l14-50 14-50 10-39 17-64 10-37a500 500 0 01 8-28l5-17a400 400 0 01 7-27l14-50 14-49c16-58 17-76 6-94a70 70 0 00-38-27zm170 76-4 14-20 72-10 30-30 102-13 47-10 37-5 22a500 500 0 00-8 29 1300 1300 0 01-10 32l-18 70a500 500 0 01-7 26l-7 27a100 100 0 01-3 13l-23 80c-2 4-3 11-2 13s10 5 23 10L800 980l52 14 30 8a200 200 0 01 20 6l78 20 83 24 30 8 28 8 40 10 40 10 50 13 37 10 18 5 18 2c10 3 19 5 20 4a2500 2500 0 00 17-64l10-35 6-20a200 200 0 01 6-23l29-109 13-47 10-37 4-20 8-30 10-33 18-68a600 600 0 01 9-30l14-50 14-59a1452 1452 0 00-83-23l-54-15a3000 3000 0 01-54-14l-27-7a400 400 0 01-27-7l-27-7a100 100 0 01-15-4 600 600 0 00-26-8 1600 1600 0 01-37-10l-48-14-102-28-32-8a1900 1900 0 01-67-18zm693 214-31-8-24-7c-2 0-5 6-10 22l-17 66-6 27a400 400 0 01-8 27l-7 28-20 74-7 30-22 82a900 900 0 00-7 28l-45 180a60 60 0 00-3 14c0 2 8 4 46 14l23 4a2400 2400 0 00 15-60l10-36 34-130a700 700 0 01 10-32l4-20a300 300 0 01 7-25l7-28a300 300 0 01 7-27l8-27a100 100 0 01 3-16l10-40 16-56 13-50 5-20zm-780-207c-10-2-12-2-13 0a2400 2400 0 00-28 104 300 300 0 01-5 23l-14 50-14 52-15 34a500 500 0 01-10 28 900 900 0 00-9 30l-30 127-16 60-10 46-4 12c0 2 6 3 12 4l33 10 23 5 20-67 10-43 14-52 16-45L780 700a400 400 0 01 7-28l7-27a300 300 0 01 7-27l8-28a200 200 0 01 6-25l7-25a100 100 0 01 4-16 1800 1800 0 00 11-43l15-56c16-60 16-63 13-64a800 800 0 00-54-15zm133 710v4l-10 27a400 400 0 01-8 30l-2 10-3 10-6 22-6 19-3 13-4 13-5 20-6 20-6 20-12 44-5 19-7 23-10 40a600 600 0 01-8 26l-6 19-10 35a50 50 0 00-13 10 200 200 0 00 20 6l79 22 43 10 34 10 10-30 5-20 2-11a100 100 0 01 3-12l8-23 5-10 2-10 7-26 3-10 5-17 5-20 7-22 6-23 5-18a200 200 0 00 4-12 100 100 0 01 3-10 100 100 0 00 4-10l10-33a50 50 0 00 3-10 30 30 0 01 2-8 500 500 0 00 7-24l7-23 2-8 2-10a100 100 0 00 4-11v-6l-6-2-23-6-38-10-81-22-20-5zm92 505-50-13-24-6a200 200 0 01-20-4l-90-24-85-22h-4s-10 25-10 34a900 900 0 01-10 36l-8 32 6 3 8 2 33 8 98 25 60 15a500 500 0 00 28 7l20 5c7 2 50 13 52 12l6-20 12-43 8-33a160 160 0 00-30-10zm-230 76a118 118 0 00-30-6c-2 1-6 14-17 60l-22 83-22 42-20 70-3 20a200 200 0 01-6 20l-6 20-7 22-5 20a200 200 0 01-6 20l-6 23a100 100 0 01-3 15 300 300 0 00-6 23l210 58 30-110 5-20a200 200 0 01 4-18l18-66a200 200 0 01 8-21l5-22a300 300 0 01 6-24l16-60a200 200 0 01 5-20l6-22a100 100 0 01 3-16c7-18 13-43 11-43a6000 6000 0 00-72-20l-104-28" fill="#222"/><use href="#a"/><g fill="#eee" font-family="Montserrat" font-size="423" font-weight="500" letter-spacing="-.27" text-anchor="middle"><path d="m410 2329-26-63H239l-26 63h-59l130-296h59l128 296zm-150-111h104l-52-125zm263-10q0 34 20 54t54 20 52-20q20-20 20-55v-174h56v174q0 39-15 67-16 29-45 44-30 15-70 15-40 0-68-15-30-15-45-44-16-28-16-67v-174h57zm210-175h241v50h-92v246h-57v-246h-92zm255 0h57v126h147v-126h57v296h-57v-120h-147v120h-57zm442-4q44 0 80 20 37 20 57 54t21 77-20 78q-20 35-58 55-36 20-80 20t-80-20q-36-20-57-55-20-35-20-78 0-42 20-77t57-54q36-31 80-31m0 50q-26 0-50 15-23 13-36 37-14 20-14 49t14 53q14 23 37 36 30 14 50 14 30 0 50-14 30-13 40-36 18-24 18-52t-14-50q-12-24-35-37-22-13-50-13m367 250-50-88h-79v88h-57v-294h124q58 0 90 26t30 76q0 33-15 59-16 23-45 36l67 98zm-129-137h67q32 0 50-14t16-42q0-27-17-40-16-14-48-14h-67zm223-160h56v297h-58zm70 0h241v50h-93v247h-57v-244h-92"/><path d="m2455 2032-108 200v97h-57v-95l-110-202h57l80 140 80-140"/></g></g><g transform="matrix(2 0 0 2 28575 6667)"><rect fill="#222" width="2646" height="2646" rx="198"/><rect fill="#03a9f4" width="2381" height="2381" x="132" y="132" rx="132"/><path d="m1161 255-74 3A910 910 0 00 460 584Q284 799 256 1080a1200 1200 0 00-1 160 910 910 0 00 264 569 840 840 0 00 143 117 904 904 0 00 430 147l35 3c21 0 90-1 120-4a900 900 0 00 323-92 910 910 0 00 494-684c7-50 10-80 10-132a880 880 0 00-48-290 910 910 0 00-166-295 910 910 0 00-621-320 1000 1000 0 00-76-4M950 398a1200 1200 0 00-134 178c-18 31-46 84-62 120l-8 16-2-1-30-14-75-37a1400 1400 0 01-47-28l-15-10 6-6a800 800 0 01 215-160 840 840 0 01 152-58m424 0a800 800 0 01 333 184l36 36 5 5-15 10-44 25-51 27-52 23-8 4-2-6a1800 1800 0 00-63-122 1200 1200 0 00-140-186M1106 400v392h-2a1100 1100 0 01-184-26 1000 1000 0 01-55-14l-12-4 10-20 23-48a1030 1030 0 01 163-226l45-45 12-10m113 0v6l40 37a1020 1020 0 01 172 237l24 50 10 20-10 4c-66 18-140 32-209 37l-32 2V400m-710 312 10 5A1200 1200 0 00 700 815l6 3-5 16a1200 1200 0 00-49 275H365v-5a700 700 0 01 12-86A800 800 0 01 452 800c15-30 40-70 53-88m1312 0a804 804 0 01 140 398h-252l-33-1h-2a1100 1100 0 00-25-185l-28-106 6-3a1200 1200 0 00 186-98zm-302 129c4-1 4 0 10 22a1060 1060 0 01 45 243v15h-182c-144 1-182 0-183-1a3600 3600 0 01 0-114V895l18-2c90-6 155-16 224-33zm-702 14a1260 1260 0 00 285 50l7 1v203h-340v-15l7-53a1100 1100 0 01 37-174zM365 1220h287l3 38c5 80 21 165 46 245l3 10-13 5c-57 24-133 64-180 95l-6 5v-2a500 500 0 01-19-27l-40-70a818 818 0 01-80-300zm400 0h340v203h-7c-104 8-182 20-272 47l-10 3-6 2-3-10a1000 1000 0 01-13-48 1100 1100 0 01-30-190zm793 0v8a1070 1070 0 01-41 235l-4 10c-83-25-183-43-287-51h-8V1220h170zm113 0h286a400 400 0 01-2 30 800 800 0 01-129 356l-8 12-4-2a1260 1260 0 00-182-98l-13-6 3-10c25-81 43-179 47-257zm-565 316v403h-1a1400 1400 0 01-40-37 1030 1030 0 01-189-262 1300 1300 0 01-20-44l-8-15 5-2 48-23a1100 1100 0 01 193-30zm110 0h13a1100 1100 0 01 120 15l80 20 34 10h3l-11 30a1060 1060 0 01-234 320l-12 17V1750zm-474 83 5 10a1170 1170 0 00 196 293 1100 1100 0 01-42-12 800 800 0 01-265-154 1400 1400 0 01-40-38l-20-20a600 600 0 01 23-16l67-38 48-24a600 600 0 01 28-12m839 0a700 700 0 01 50 23l76 40 40 24-15 17a1200 1200 0 01-36 35c-87 80-200 137-314 170 78-89 146-190 194-298" fill="#222"/><use href="#a"/><text xml:space="preserve" fill="#eee" x="1320" y="2329" font-family="Montserrat" font-size="423" font-weight="500" text-anchor="middle"><tspan x="1320" y="2329">GLOBE</tspan></text></g><g transform="matrix(2 0 0 2 23019 6667)"><rect fill="#222" width="2646" height="2646" rx="198"/><rect fill="#00897b" width="2381" height="2381" x="132" y="132" rx="132"/><use href="#a"/><path d="m940 1852-2-80-60-10a923 923 0 01-200-60 413 413 0 01-186-170 172 172 0 01-18-90c0-58 15-92 56-125 42-35 90-50 150-51 60 0 97 10 136 43 128 106 60 280-118 297l-40 4 17 17c34 33 111 63 207 80 67 14 60 44 60-255V1190l-34-14-90-38c-145-60-246-150-284-248a410 410 0 01 20-287c57-114 190-200 350-231l38-7V213h51V360h130V213h58v77c0 42 2 76 4 76 22 0 96 15 136 27 170 49 272 135 280 241 5 47-10 82-41 116-38 39-66 49-134 49-53 0-60-2-93-18a163 163 0 01-86-105c-7-28-6-36 6-72 14-43 28-59 77-88 20-12 37-16 63-16 20 0 36-3 36-6 1-15-100-57-169-69l-54-10-15-2 2 242 2 242 63 23a1100 1100 0 01 320 167c88 78 115 130 120 227a382 382 0 01-73 267 430 430 0 01-243 154 900 900 0 01-130 28l-60 7v163h-60v-160H998v160h-50zm158-131h24v-470l-58-20-64-23c-5 0-7 90-7 256v256l28 2a230 230 0 00 50 0h30zm153-34a280 280 0 00 124-110 206 206 0 00 0-153c-27-57-73-95-162-136l-33-15v437l18-4c10-2 34-10 53-20M1122 644V407h-40a600 600 0 00-65 4l-24 4 2 212 1 212 17 5 60 20 48 14V643m-180-20c0-218 5-206-55-175-48 25-95 75-110 115-23 70-3 130 60 187 24 20 90 63 100 63 3 0 5-86 5-190" fill="#222"/><text xml:space="preserve" fill="#eee" x="1309" y="2347" font-family="Montserrat" font-size="423" font-weight="500" letter-spacing="0" text-anchor="middle"><tspan x="1309" y="2347">MARKETS</tspan></text></g><g transform="matrix(2 0 0 2 39688 1111)"><rect fill="#222" width="2646" height="2646" rx="198"/><rect fill="#8bc34a" width="2381" height="2381" x="132" y="132" rx="132"/><path d="m297 2016 57-90 52-85V578l-58-92-54-96c2-2 182 1 400 6h782l392-5c2 2-22 47-54 100l-58 93v1254l57 92 57 93-788 1-784-7zm414-165-10-60a428 428 0 01-25-194c15-90 54-137 194-232 123-83 134-95 134-150 0-56-20-80-126-153C720 960 680 912 668 824a570 570 0 01 22-206l15-47H490v633l10 634 190 13c11 10 20 10 20 9zm931-10 40-5V570h-110c-92 2-106 4-102 14 29 75 40 127 40 198 0 65-4 80-20 110-27 53-74 98-164 157-117 78-150 113-150 170 0 46 24 70 125 140 160 108 205 164 210 266a430 430 0 01-46 200l-12 28 74-4 115-10m-202-170c17-58-6-119-60-168a2587 2587 0 00-236-160c-8 0-4 73 7 123a280 280 0 00 125 190c26 12 95 30 128 30 27 0 33-3 36-18zm-573-4c76-20 130-70 156-145 12-40 30-167 23-174a968 968 0 00-195 123c-80 63-113 120-103 180 5 30 6 30 40 30 20 1 56-6 80-12m415-740c90-20 138-56 155-115 10-40 0-103-30-185l-20-53H788l-20 55c-25 70-34 174-16 208 30 56 94 90 200 103 75 10 272 3 330-10" fill="#222"/><use href="#a"/><g fill="#eee" font-family="Montserrat" font-size="423" font-weight="500" letter-spacing="-.27" text-anchor="middle"><path d="M222 2032h242v50h-92v247h-57v-246h-93zm441 297-50-88h-78v88h-57v-296H600q58 0 90 26t30 75q0 35-15 60-14 24-43 37l65 98zm-128-137h67q32 0 50-14t16-42q0-27-17-40-17-14-50-14h-66"/><path d="m977 2329-27-63H805l-26 63h-60l130-296h60l120 296zm-151-111H930l-52-125zm344-185q44 0 80 19 35 18 54 52t20 77-20 76q-20 34-55 53-36 19-81 19h-121v-300zm1 246q30 0 50-12 30-13 40-35 16-22 16-50t-14-52q-13-23-35-35-22-12-50-12h-65v196zm180-246h60v296h-53zm70 0h249v50h-93v246h-58v-246h-92zm262 0h57v296h-57zm238-4q44 0 80 20 36 20 57 54t20 77-20 78q-21 35-60 55-34 20-80 20t-80-20q-34-20-55-55-20-35-20-78 0-42 20-77t57-54q36-31 80-31m0 50q-26 0-50 15-22 13-36 37-14 20-14 49t14 53q14 23 37 36 23 14 50 14t50-14q23-13 36-36 14-24 14-52t-13-50q-14-24-37-37-23-13-50-13m387-48h53v296H2300l-152-204v204h-55v-296h53l154 210"/></g></g><g transform="matrix(2 0 0 2 39688 6667)"><rect fill="#222" width="2646" height="2646" rx="198"/><rect fill="#9c27b0" width="2381" height="2381" x="132" y="132" rx="132"/><path d="M1080 345a16 16 0 00-13 11c-53 8-103 40-148 113-48 78-84 189-111 328a1020 1020 0 00-334-70c-96 3-162 27-192 80a130 130 0 00-16 64 300 300 0 00 45 140c43 80 120 167 224 258a1036 1036 0 00-227 258 310 310 0 00-42 140 130 130 0 00 16 63c30 52 94 77 188 80 92 2 206-23 338-70 27 135 62 246 108 324 50 83 106 128 166 128 60 0 115-45 164-128 46-79 81-189 110-324 132 46 246 71 337 69 94-3 160-27 190-79 10-19 15-41 15-65a300 300 0 00-42-138c-44-80-123-166-230-258 104-90 183-177 228-257 30-52 44-98 44-140 0-24-5-46-17-65-30-53-96-77-193-79a1040 1040 0 00-334 70c-27-140-63-250-110-329-50-80-103-124-162-124zm2 93c15 0 30 7 48 24s36 42 55 78c35 65 62 163 84 286a2200 2200 0 00-187 82 2400 2400 0 00-189-82c21-123 50-220 84-286 18-36 37-62 55-78s34-24 50-24M476 813a500 500 0 01 30 0c74 4 171 30 285 71a2500 2500 0 00-22 204 2500 2500 0 00-165 120A1020 1020 0 01 400 998q-33-52-40-88c-10-38-6-43 3-58 8-14 22-24 45-30a250 250 0 01 67-10m1210 0q42 0 68 10c24 6 38 16 46 30 0 14 10 32 0 56s-20 53-40 87a991 991 0 01-210 214 2500 2500 0 00-166-120 2200 2200 0 00-23-206 997 997 0 01 288-70 500 500 0 01 30 0zm-403 104 11 108-52-32h-1l-57-32 100-44zm-404 1 100 43-57 31-45 33 12-107zm200 94 115 61 110 66 2 130-3 128-110 65-110 63a1900 1900 0 01-113-62 1800 1800 0 01-110-66 3800 3800 0 01-10-130v-129a2400 2400 0 01 110-66zm3 148q-20 0-50 15a95 95 0 00-40 39 110 110 0 00-10 55c0 18 4 36 13 53a105 105 0 00 40 48 110 110 0 00 52 14c20 0 37-6 54-15a105 105 0 00 40-39 110 110 0 00 12-53 110 110 0 00-14-57 95 95 0 00-40-40 110 110 0 00-53-13zm-310 44v128l-88-60zm634 0 90 65-90 63 2-63zM610 1327l166 121 22 204c-116 42-215 67-290 70-40 2-70-1-94-8s-35-18-43-31-10-30-5-54 17-53 40-87a950 950 0 01 204-215zm956 0c96 80 167 152 206 215 22 34 35 63 40 87s3 40-5 53c-6 14-20 25-43 32s-55 10-95 8c-75-3-173-28-290-70l24-204a2700 2700 0 00 166-122zM867 1510l55 34 56 30-100 44zm427 0-10 108a3800 3800 0 01-100-43l57-31zm-214 120 190 83a1090 1090 0 01-84 284c-18 36-37 62-54 79s-34 23-50 23-33-17-51-33-37-42-55-80a971 971 0 01-83-282 2400 2400 0 00 187-84" fill="#222" font-family="Montserrat" font-size="423" font-weight="700" text-anchor="middle"/><use href="#a"/><g fill="#eee" font-family="Montserrat" font-size="423" font-weight="500" letter-spacing="-.27" text-anchor="middle"><path d="M376 2032q56 0 87 27 30 27 30 75 0 51-30 80-30 28-87 28h-65v87h-56v-300zm-3 160q32 0 50-14 17-14 17-42 0-27-18-40-17-14-49-14h-62v110zM700 2330l-52-90h-77v88h-57v-296h124q57 0 90 26t30 76q0 34-15 60-15 23-44 36l65 98zm-130-140h68q32 0 49-14t17-42q0-27-17-40-17-14-50-14h-66zm358-163q44 0 80 20 37 18 58 52t20 76-20 78q-20 34-58 55-36 20-80 20t-80-20q-36-20-57-55-20-35-20-78 0-42 20-77 21-36 57-55 36-20 80-20m1 50q-27 0-50 13-24 13-37 36-14 23-14 51t14 51q14 24 37 37 23 14 50 14t50-14q23-13 36-37 13-23 13-50t-13-52q-14-23-36-36-30-14-50-14"/><path d="M1300 2182h50v112q-23 18-55 29-32 10-62 10-44 0-80-20-35-20-56-55-20-35-20-78 0-42 20-76 22-35 58-55 37-20 80-20 33 0 64 11t53 32l-32 41q-17-16-40-25-21-8-44-8-27 0-51 13t-37 37q-14 23-14 50 0 28 14 52 14 23 37 36t52 14q15 0 32-5t32-14zm274 147-50-88h-78v88h-57v-296h124q57 0 88 26t32 75q0 35-15 60-15 24-44 37l65 98zm-128-137h67q32 0 49-14t17-42q0-27-17-40-17-14-50-14h-66zm222-160h218v50h-160v73h143v50h-144v74h166v50h-222zm440 77q-23-14-47-22-24-8-42-8-20-10-32-3t-12 20q0 15 8 20 8 10 20 17 13 5 35 10 30 9 49 18 20 9 33 26t13 46q0 27-14 47-15 20-40 30-37 11-70 11-34 0-67-13-34-13-58-34l23-49q23 20 50 32 29 12 53 12 24 0 37-10t13-25q0-13-10-20-6-10-20-14l-33-10q-30-9-50-17-18-9-32-25-14-18-14-46 0-26 15-45 14-20 39-30 25-10 58-10 30 0 58 9 28 9 50 23zm240 0q-23-14-47-22-24-8-42-8-20-10-33-3t-11 20q0 15 8 20 8 10 20 17 13 5 35 10 30 9 49 18 20 9 33 26t13 46q0 27-15 47-14 20-40 30-25 11-58 11-35 0-68-13-33-13-58-34l24-49q23 20 50 32 29 12 53 12 23 0 37-10 14-10 14-25 0-13-9-20-8-10-20-14l-35-10q-30-9-50-17-19-9-32-25-14-18-14-46 0-26 14-45 14-20 39-30 25-10 58-10 29 0 57 9 28 9 50 23"/></g></g><text xml:space="preserve" fill="#eee" x="-35554" y="2411" font-family="Montserrat" font-size="847" font-weight="500" text-anchor="middle"><tspan x="-25749" y="-7103">ORD</tspan></text></svg>
