<svg xmlns="http://www.w3.org/2000/svg" viewBox="0 0 52917 52917"><g transform="scale(2)"><rect fill="#222" width="26458" height="26458" rx="1984"/><rect fill="#00897b" width="23813" height="23813" x="1323" y="1323" rx="1323"/><g fill="#222"><path d="M728 18521v4167a2770 2770 0 00 2778 2778h19447a2770 2770 0 00 2778-2778v-4167"/><path d="m9402 18521-18-806-613-102c-657-109-1530-363-2002-582-780-360-1577-1094-1853-1702-146-321-176-476-175-890 2-598 150-938 554-1271 418-344 896-507 1503-512 594-5 968 115 1360 438 1278 1053 584 2796-1181 2968l-414 40 180 170c342 327 1114 628 2076 810 664 126 594 427 594-2557v-2622l-340-142-900-376c-1444-606-2454-1493-2830-2488-296-780-208-2047 199-2866 566-1140 1882-2007 3502-2312l370-70V2130h518v1471h1292V2129h580v766c0 421 23 766 49 766 214 2 953 148 1353 267 1647 490 2623 1357 2716 2413 40 470-90 828-425 1166-380 383-662 486-1335 487-532 0-611-15-935-182a1630 1630 0 01-845-1048c-70-280-62-364 57-723 143-428 280-585 765-872 202-120 360-162 629-170 198-4 359-28 360-52 2-155-1026-568-1711-688l-533-96-146-28 17 2420 17 2420 634 226c1370 491 2560 1114 3200 1674 884 776 1162 1294 1217 2272 60 1073-157 1861-735 2663-522 721-1274 1200-2433 1545a9000 9000 0 01-1308 280l-607 70v1624h-581v-1590H9933v1590H9420zm1580-1313h242v-4700l-582-212-646-212c-41 0-64 904-64 2560V17200l274 24a2300 2300 0 00 404 4c71-10 238-20 371-20zm1532-340c486-209 1051-710 1232-1093a2060 2060 0 00 5-1539c-274-565-727-944-1621-1357l-325-150v4370l175-40c97-23 336-110 533-195M11225 6430V4073l-404 1a6000 6000 0 00-647 37l-243 37 17 2123 17 2123 160 43 615 193 468 153c9 1 16-1058 16-2354m-1808-206c0-2178 40-2052-554-1742-484 253-950 746-1090 1153-240 692-43 1309 590 1863 238 207 906 630 1005 636 27 2 48-858 48-1911"/></g><path d="M2843 20510h648l982 1909 974-1909h648v2963h-521v-2125l-923 1820h-364l-927-1820v2125h-516zm6170 2963-262-626H7303l-262 627h-589l1300-2963h588l1283 2963zM7506 22360h1041l-516-1245zm4327 1113-512-876q-34 4-106 4h-669v872h-567V20510h1236q576 0 889 267t313 753q0 347-152 593-148 245-436 368l652 982zm-1287-1372h669q322 0 491-140t169-415q0-271-169-406-169-136-491-136h-669zm5138 1372h-682l-931-1270-466 512v758h-567V20510h567v1477l1338-1477h669l-1140 1253zm430-2963h2172v495h-1604v732h1440v495h-1440v745h1655v495h-2222zm2464 0h2417v504h-923v2459H19500v-2459h-923zm4682 762q-230-140-470-216-237-76-419-76-203 0-322 76t-119 212q0 123 80 207 85 80 207 136 127 50 343 114 300 89 491 178 195 89 330 262 140 174 140 457 0 271-148 474-144 199-402 305-254 106-584 106-347 0-677-127-330-130-576-347l237-483q224 207 504 326 279 119 520 119 238 0 374-89 135-93 135-250 0-127-85-207-81-85-207-136-127-50-347-114-301-89-491-174-191-85-326-254-135-169-135-448 0-259 136-449 140-195 389-300 254-105 584-105 288 0 567 85 284 85 504 229" fill="#eee" letter-spacing="0" paint-order="stroke fill markers"/></g></svg>
