<svg xmlns="http://www.w3.org/2000/svg" viewBox="0 0 52917 52917"><g transform="scale(2)"><rect fill="#222" width="26458" height="26458" rx="1984"/><rect fill="#ff9800" width="23813" height="23813" x="1323" y="1323" rx="1323"/><g fill="#222"><path d="M9195 3115c1057 1 1623 290 2252 1149 1303 1780 1664 2024 2992 2024 1131 0 2000-247 4532-1290 291-120 742 2338 988 5385l145 1791-744 326c-2032 891-3802 1224-4828 910-600-184-1070-659-1906-1925-716-1085-1607-1421-3097-1166-961 164-2793 777-2822 944-11 62 432 2123 983 4580l913 4069a9447 11252 47.501 01-1242-123c-122-833-591-3044-1574-7461L4119 4250c116-396 417-504 708-253l247 212 728-288c1286-509 2541-808 3392-807m-3820 1943a40 40 0 00-27 10c-27 24 219 1239 546 2700 398 1778 627 2598 694 2479 55-98 148-580 207-1070 132-1097-11-2063-430-2908-266-538-825-1213-990-1210"/><path d="M728 18521v4167a2770 2770 0 00 2778 2778h19447a2770 2770 0 00 2778-2778v-4167"/></g><path d="M7322 20325h550v2963h-538l-1524-2040v2040h-554v-2963h538l1528 2045zm3467 2963-262-626H9079l-262 627h-589l1300-2963h588l1283 2963zm-1507-1113h1041l-517-1245zm1845-1850h2417v504h-923v2459h-571v-2459h-923zm2819 0h567v2963h-567zm2644-38q440 0 800 199 364 199 572 546t207 770-207 775q-207 347-572 550-360 203-800 203t-804-203q-360-203-567-550-207-351-207-775 0-423 207-770t565-546q364-199 804-199m10 508q-272 0-505 136-233 130-368 364-136 229-136 508t136 512q140 233 368 368 233 135 504 135 267 0 495-135 230-136 360-368 136-233 136-512t-136-508q-130-233-360-364-229-136-495-136m4134-470h550v2963h-538l-1524-2040v2040h-555v-2963h538l1528 2045" fill="#eee" letter-spacing="0" paint-order="stroke fill markers"/></g></svg>
