<svg xmlns="http://www.w3.org/2000/svg" width="200" height="200" viewBox="0 0 52.917 52.917" xmlns:v="https://vecta.io/nano"><g transform="scale(2)"><rect width="26.458" height="26.458" fill="#222" rx="1.984"/><rect width="23.813" height="23.813" x="1.323" y="1.323" fill="#ff9800" rx="1.323"/><g fill="#222"><path d="M9.195 3.115c1.057.001 1.623.29 2.252 1.149 1.303 1.78 1.664 2.024 2.992 2.024 1.131 0 2-.247 4.532-1.29.291-.12.742 2.338.988 5.385l.145 1.791-.744.326c-2.032.891-3.802 1.224-4.828.91-.6-.184-1.07-.659-1.906-1.925-.716-1.085-1.607-1.421-3.097-1.166-.961.164-2.793.777-2.822.944-.011.062.432 2.123.983 4.581l.913 4.068a9.447 11.252 47.501 0 1-1.242-.123c-.122-.833-.591-3.044-1.574-7.461L4.119 4.25c.116-.396.417-.504.708-.253l.247.212.728-.288c1.286-.509 2.541-.808 3.392-.807M5.374 5.057a.04.04 0 0 0-.027.01c-.027.024.219 1.239.546 2.7.398 1.778.627 2.598.694 2.479.055-.098.148-.58.207-1.07.132-1.097-.011-2.063-.429-2.908-.267-.538-.826-1.213-.99-1.211"/><path d="M.728 18.521v4.167a2.772 2.772 0 0 0 2.778 2.778h19.447a2.772 2.772 0 0 0 2.778-2.778v-4.167z"/></g><path d="M7.322 20.325h.55v2.963h-.538l-1.524-2.04v2.04h-.554v-2.963h.538l1.528 2.045zm3.467 2.963l-.262-.626H9.079l-.262.627h-.589l1.3-2.963h.588l1.283 2.963zm-1.507-1.113h1.041l-.517-1.245zm1.845-1.85h2.417v.504h-.923v2.459h-.571v-2.459h-.923zm2.819 0h.567v2.963h-.567zm2.644-.038q.44 0 .8.199.364.199.572.546.207.347.207.77 0 .423-.207.775-.207.347-.572.55-.36.203-.8.203-.44 0-.804-.203-.36-.203-.567-.55-.207-.351-.207-.775 0-.423.207-.77.207-.347.567-.546.364-.199.804-.199m.009.508q-.271 0-.504.136-.233.131-.368.364-.136.229-.136.508 0 .279.136.512.14.233.368.368.233.135.504.135.267 0 .495-.135.229-.136.36-.368.136-.233.136-.512 0-.279-.136-.508-.131-.233-.36-.364-.229-.136-.495-.136m4.134-.47h.55v2.963h-.538l-1.524-2.04v2.04h-.555v-2.963h.538l1.528 2.045z" fill="#eee" letter-spacing="0" paint-order="stroke fill markers"/></g></svg>