<svg xmlns="http://www.w3.org/2000/svg" viewBox="0 0 52917 52917"><g transform="scale(2)"><rect fill="#222" width="26458" height="26458" rx="1984"/><rect fill="#9c27b0" width="23813" height="23813" x="1323" y="1323" rx="1323"/><g fill="#222"><path d="M10805 3447a160 160 0 00-136 115v2c-528 75-1027 401-1480 1127-476 776-836 1889-1111 3276-1296-448-2424-700-3336-684-960 17-1626 262-1926 787v2a1300 1300 0 00-154 635c0 421 155 892 448 1418 433 800 1208 1657 2242 2565-1051 924-1835 1787-2268 2580v2c-275 525-421 986-421 1390a1300 1300 0 00 154 635v3c290 517 944 766 1886 799h3c914 24 2054-233 3372-696 274 1349 623 2453 1087 3236v2c500 826 1051 1282 1659 1282 601 0 1143-456 1635-1282v-2c464-784 816-1888 1090-3238 1330 458 2473 711 3381 687 942-25 1594-269 1886-785V17300c113-189 169-410 169-651 0-404-146-860-422-1377v-2c-443-797-1234-1657-2294-2579 1036-906 1823-1765 2270-2572h-3c292-518 448-980 448-1394 0-242-56-463-170-652-300-525-968-768-1934-785-910-16-2040 236-3340 682-273-1385-630-2498-1106-3273-492-800-1025-1244-1610-1244h-16zm16 937c150 0 308 67 483 232s360 425 545 780c346 655 624 1638 839 2868a22000 22000 0 00-1865 818 24000 24000 0 00-1893-818c215-1230 492-2213 839-2868 185-355 372-616 550-780s341-232 502-232M4764 8130a5000 5000 0 01 289 6c748 38 1718 287 2856 705a25000 25000 0 00-220 2036 25000 25000 0 00-1650 1214c-938-776-1642-1494-2050-2127V9960q-330-510-408-869c-78-359-29-415 57-558l2-2c78-134 217-239 450-310a2500 2500 0 01 674-88m12103 0q410 7 676 87c235 71 377 177 459 314 82 142 107 320 52 558s-192 532-413 871v2c-407 641-1116 1363-2062 2140a25000 25000 0 00-1650-1217 22000 22000 0 00-231-2046c1137-418 2114-667 2878-705h2a5000 5000 0 01 290-6zm-4036 1043 112 1080-527-328-7-4-570-309 991-438zm-4042 9 991 431-560 309-5 2-541 330 115-1073zm2006 937 1141 615 1092 661 33 1296-33 1287-1092 658-2 2-1115 622a19000 19000 0 01-1120-623l-10-3a18000 18000 0 01-1099-658 38000 38000 0 01-22-1287l21-1296a24000 24000 0 01 1103-661h2zm25 1486q-285 2-539 143a950 950 0 00-403 391 1100 1100 0 00-143 550c0 190 50 373 143 541l2 1a1050 1050 0 00 400 387 1100 1100 0 00 540 143c181 0 360-50 527-143a1050 1050 0 00 400-387l2-2a1100 1100 0 00 143-540 1100 1100 0 00-143-550 950 950 0 00-403-392 1100 1100 0 00-528-143zm-3184 440-7 645 4 636-880-635zm6347 0 891 645-890 636 16-635zM6030 13279l1659 1216 220 2034c-1161 425-2145 675-2891 705-399 16-714-16-944-87s-368-176-445-310-100-305-47-540 183-528 396-867l3-2c383-631 1090-1357 2050-2150zm9559 0c960 792 1673 1518 2064 2150v2c217 340 350 630 403 865s29 405-52 539v3c-78 134-218 238-448 310s-546 102-944 86c-747-30-1735-280-2903-705l220-2035a27000 27000 0 00 1659-1216zm-6914 1834 546 335 560 310-994 437zm4269 2-112 1080a38000 38000 0 01-991-438l570-309 2-2zm-2148 1172 1895 829c-204 1202-480 2172-826 2844v3c-181 360-367 622-544 787s-337 234-497 234-330-70-511-237-368-428-553-787c-348-672-622-1642-830-2844a24000 24000 0 00 1869-829" font-family="Montserrat" font-size="4233" font-weight="700" text-anchor="middle"/><path d="M728 18521v4167a2770 2770 0 00 2778 2778h19447a2770 2770 0 00 2778-2778v-4167"/></g><g fill="#eee" font-family="Montserrat" font-size="4233" font-weight="500" letter-spacing="-.265" text-anchor="middle"><path d="M3761 20325q559 0 864 267 309 267 309 753 0 508-309 792-305 279-864 279h-648v872h-567v-2963zm-30 1592q322 0 491-140 174-140 174-415 0-271-173-406-169-136-490-136h-619v1096zm3265 1372-512-876q-34 4-106 4h-669v872h-567v-2963h1236q576 0 889 267t313 753q0 347-152 593-148 245-436 368l652 982zM5710 21917h668q322 0 491-140t169-415q0-270-170-406-168-136-490-136h-670zm3573-1630q440 0 800 200 364 198 572 545t207 770-207 775q-207 347-572 550-360 203-800 203t-804-203q-360-203-567-550-207-351-207-775 0-423 207-770 208-347 567-546 364-199 804-199m8 508q-270 0-501 136-233 130-368 364-135 229-135 508t135 512q140 233 368 368 233 135 504 135 267 0 495-135 229-136 360-368 136-233 136-512t-136-508q-131-233-360-364-230-136-495-136"/><path d="M13007 21815h495v1126q-233 174-550 284-318 106-622 106-436 0-796-203-356-203-563-550-207-350-207-775 0-423 212-766 212-347 576-546 368-203 813-203 318 0 627 114t533 313l-322 420q-169-162-394-250-220-90-444-90-280 0-517 136-233 131-368 364-136 233-136 508 0 280 136 512 140 233 373 368t517 135q152 0 318-47 169-50 322-140zm2737 1473-512-876q-34 4-106 4h-669v872h-567v-2963h1236q576 0 889 267t313 753q0 347-152 593-148 245-436 368l652 982zm-1287-1372h669q322 0 491-140t169-415q0-271-169-406-169-136-491-136h-669zm2227-1592h2172v495h-1604v730h1440v494h-1440v745h1655v495h-2222zm4393 762q-229-140-470-216-237-76-419-76-203 0-322 76t-119 212q0 123 80 207 85 80 207 136 127 51 343 114 300 89 491 178 195 90 330 262 136 174 136 457 0 271-148 474-144 200-402 305-254 106-584 106-347 0-677-127-330-130-576-347l237-483q224 207 504 326 279 120 521 120 237 0 373-90 135-93 135-250 0-127-85-207-81-85-207-136-127-50-347-114-301-89-491-174-191-88-326-257-136-174-136-453 0-258 136-449 140-194 389-299 254-106 584-106 288 0 567 85 284 85 504 230zm2398 0q-229-140-470-216-237-76-419-76-203 0-322 76t-119 212q0 123 80 207 85 80 207 136 127 51 343 114 300 89 491 178 195 90 330 262 136 174 136 457 0 271-148 474-144 200-402 305-254 106-584 106-347 0-677-127-330-130-576-347l237-483q224 207 504 326 279 120 521 120 237 0 373-90 135-93 135-250 0-127-85-207-81-85-207-136-127-50-347-114-301-89-491-174-191-88-326-257-136-174-136-453 0-258 136-449 140-194 389-299 254-106 584-106 288 0 567 85 284 85 504 230"/></g></g><text xml:space="preserve" fill="#eee" x="-355537" y="24113" font-family="Montserrat" font-size="8467" font-weight="500" text-anchor="middle"><tspan x="-257488" y="-71030">ORD</tspan></text></svg>
