<svg xmlns="http://www.w3.org/2000/svg" viewBox="0 0 52917 52917"><defs><path d="M728 18521v4167a2770 2770 0 00 2778 2778h19447a2770 2770 0 00 2778-2778v-4167" fill="#222" id="a"/></defs><g transform="matrix(2 0 0 2 341313 66675)"><rect fill="#222" width="26458" height="26458" rx="1984"/><rect fill="#3f51b5" width="23813" height="23813" x="1323" y="1323" rx="1323"/><path d="M17239 5259a950 950 0 00-571 3c-250 81-284 132-424 641l-163 574a6000 6000 0 00-79 281 10000 10000 0 01-85 314l-202 733a5000 5000 0 01-60 222 14000 14000 0 00-100 366l-160 607-114 449a600 600 0 01-20 114 33000 33000 0 00-292 1195q-88 386-65 720a810 810 0 00 187 430 350 350 0 00 240 142c129 28 158 26 320-27a700 700 0 00 292-160c178-158 190-192 430-1071l220-810 70-248 65-235c0-14 35-138 74-275l142-511 145-514 70-265a3000 3000 0 01 64-245l480-1749a500 500 0 00-20-262c-40-143-56-169-155-259a800 800 0 00-283-160M7330 2619a950 950 0 00-520-11 450 450 0 00-257 126c-76 74-102 140-236 596l-166 590c-8 42-40 160-73 262l-67 241a2000 2000 0 01-41 161l-320 1154-141 520a13000 13000 0 00-92 352l-105 418c-291 1127-360 1498-332 1792a700 700 0 00 86 320 510 510 0 00 374 276 450 450 0 00 293-22c270-89 508-355 555-617a4000 4000 0 01 78-300l76-275a6000 6000 0 01 73-274l140-498 142-510 103-380 172-628 102-378a5000 5000 0 01 76-271l50-177a4000 4000 0 01 70-265l145-517 132-474c164-577 176-759 60-936a700 700 0 00-380-276zm1700 762-38 136-195 718c0 5-35 141-80 302l-280 1024-130 471-96 365-60 222a5000 5000 0 00-80 280 13000 13000 0 01-87 325l-187 686a5000 5000 0 01-73 271l-70 273a1000 1000 0 01-32 123l-240 869c-17 72-25 144-20 160s116 58 239 90l470 130 528 146 290 75a2000 2000 0 01 219 58l767 210 827 226 302 80c5-3 134 31 287 74l364 100 376 103 498 130 370 104 178 50c7-2 90 20 188 48s178 48 180 43a25000 25000 0 00 179-650l97-350 50-190a2000 2000 0 01 58-226l302-1100 130-470 95-366 60-220c14-38 50-168 80-289l88-324 187-687a6000 6000 0 01 80-302l140-502 136-566c-63-23-551-160-560-158s-123-30-265-70l-544-150a30000 30000 0 01-520-143l-243-64a4000 4000 0 01-273-73l-275-70a1000 1000 0 01-150-42 6000 6000 0 00-280-78 16000 16000 0 01-364-97l-484-132-1020-278-313-83a19000 19000 0 01-672-182zm6935 2137-315-83-240-62c-22-9-50 56-88 212l-176 668-67 264a4000 4000 0 01-72 275l-72 276c3 10-29 130-198 740l-80 305c2 10-139 545-216 820a9000 9000 0 00-70 274l-452 1720a600 600 0 00-25 123c4 19 77 41 457 140l234 52a24000 24000 0 00 151-592l98-378 342-1305a7000 7000 0 01 84-308l50-191a3000 3000 0 01 71-271l72-273a3000 3000 0 01 71-276l72-272a1000 1000 0 01 37-148l107-399 150-573 130-507 50-200zM8127 3452c-93-22-115-20-125 10a24000 24000 0 00-278 1030 3000 3000 0 01-57 226l-132 490-143 535-87 338a5000 5000 0 01-72 274 9000 9000 0 00-80 300l-337 1278-155 599-123 457c-17 51-28 104-26 116s56 34 118 49l332 87 231 57c11-3 110-357 185-668l110-430 138-517 120-452 62-245a4000 4000 0 01 72-273l71-276a3000 3000 0 01 73-270l72-275a2000 2000 0 01 66-252l67-249a1000 1000 0 01 30-160 18000 18000 0 00 115-428l146-560c160-606 164-629 132-643a8000 8000 0 00-537-149zm1333 7106-9 29-76 270a4000 4000 0 01-92 312c-17 50-28 94-25 97s-10 52-27 108l-61 207-55 189-35 126-35 130-54 190-60 210-60 215-120 430-50 189-60 231-110 393a6000 6000 0 01-72 265l-53 180-103 353a500 500 0 00-23 97 2000 2000 0 00 196 61l810 221 423 113 338 88c10 0 29-63 97-304l59-200 30-110a1000 1000 0 01 30-116l67-230 60-200a2918 2918 0 01 97-353l29-105 44-152 53-190 65-230 65-233 50-173a2000 2000 0 00 35-124 1000 1000 0 01 28-100 1000 1000 0 00 25-90c10-57 57-220 95-334a500 500 0 00 24-97 300 300 0 01 20-76 5000 5000 0 00 68-238l68-240c13-38 22-72 20-75s9-44 25-90a1000 1000 0 00 36-124l6-44-75-23-230-63-378-99-812-218-183-50zm919 5043-510-130-230-50a2000 2000 0 01-200-45l-923-238-832-215c-16-8-35-14-44-10-15 3-90 256-102 342a9000 9000 0 01-90 363l-87 326 63 26c34 14 70 24 80 22s154 32 322 75l982 252 600 153a5000 5000 0 00 283 68c70 14 158 36 195 49 73 26 510 130 526 126a1220 1220 0 00 56-191l124-495 74-325a1600 1600 0 00-298-94zm-2300 760c-155-30-293-59-306-50-22 11-59 140-175 600l-220 830-110 416-189 691-54 213a2000 2000 0 01-52 200l-53 200c2 5-24 102-58 216l-57 218a2000 2000 0 01-53 198l-59 223a1000 1000 0 01-37 144 3000 3000 0 00-63 230l2082 580 308-1086 55-214a2000 2000 0 01 45-180l175-656a2000 2000 0 01 60-215l58-215a3000 3000 0 01 62-246l160-590a2000 2000 0 01 60-215l55-217a1000 1000 0 01 40-154c54-180 115-430 105-433a60000 60000 0 00-740-200l-1037-279" fill="#222"/><use href="#a"/><g fill="#eee" font-family="Montserrat" font-size="4233" font-weight="500" letter-spacing="-.265" text-anchor="middle"><path d="m4102 23289-263-626H2390l-263 627H1540l1300-2963h588L4710 23290zm-1507-1113h1041l-516-1245zm2638-106q0 351 200 550t532 199 525-200q195-200 195-550v-1750h567v1741q0 385-157 673-157 284-449 436-288 152-682 152-398 0-694-152-292-152-449-436-157-288-157-673v-1740h567zm2093-1744h2417v504H8820v2460h-571v-2460h-923zm2554 0h567v1266h1477v-1266h567v2963h-567v-1202h-1477v1202H9880zm4422-38q440 0 800 199 364 200 572 546t207 770-207 775q-207 347-572 550-360 203-800 203t-804-203q-360-203-567-550-207-351-207-775 0-423 207-770t567-546q364-199 804-199m8 508q-271 0-504 136-233 131-368 364-136 229-136 508t136 512q140 233 368 368 233 135 504 135 267-11 495-146 229-136 360-368 136-233 136-512t-130-508q-130-233-360-364-230-136-492-136m3658 2493-512-876q-34 5-106 5h-670v873h-565v-2960h1236q576 0 889 268t313 753q0 347-152 593-148 245-436 368l652 982zm-1287-1372h669q322 0 490-140t170-415q0-271-170-406-168-136-490-136h-670zm2227-1592h567v2962h-567zm703 0h2417v503h-923v2460h-571v-2460h-922"/><path d="m24549 20325-1079 1994v969h-567v-948l-1105-2015h576l809 1393 796-1393"/></g></g><g transform="matrix(2 0 0 2 285750 66675)"><rect fill="#222" width="26458" height="26458" rx="1984"/><rect fill="#03a9f4" width="23813" height="23813" x="1323" y="1323" rx="1323"/><path d="m11614 2553-749 23c-1911 176-3580 855-5051 2055-316 258-939 881-1207 1205Q2830 7993 2546 10815a12000 12000 0 00-10 1586c179 1941 880 3638 2113 5119 102 122 336 371 531 567a8400 8400 0 00 1426 1172 9040 9040 0 00 4287 1471l359 25c211 15 896-7 1200-35a9000 9000 0 00 3225-918 9100 9100 0 00 4945-6838c70-493 92-810 92-1328a8800 8800 0 00-471-2889 9100 9100 0 00-1666-2961c-235-283-820-867-1098-1098-1503-1238-3186-1932-5128-2111a10000 10000 0 00-750-23M9480 3984a12000 12000 0 00-1333 1780c-186 307-464 838-628 1200l-72 156-27-10-307-137-741-375a14000 14000 0 01-473-275l-148-94 60-70A8000 8000 0 01 7970 4547c448-232 1014-424 1516-565m4246 2c1222 337 2425 977 3324 1832l365 360 45 50-152 98-434 258-515 266-512 237-82 35-20-55a18000 18000 0 00-630-1228 12000 12000 0 00-1382-1852m-2684 10 5 367 3 1529V7930h-31a11000 11000 0 01-1837-256 10000 10000 0 01-551-143l-120-39 89-192 246-488a10300 10300 0 01 1627-2264l450-447 118-107m1126 0 72 65 385 371c710 735 1243 1462 1734 2369l244 490 96 194-140 44c-651 184-1387 319-2074 377l-324 18v-2040l6-1583 2-311m-7120 3120 90 56A12000 12000 0 00 7000 8146l62 29-50 160a12000 12000 0 00-486 2752l-1443 4-1430 4 4-61a7000 7000 0 01 110-851 8000 8000 0 01 753-2188c155-298 398-688 535-881m13113 6c560 828 957 1666 1186 2580 116 462 215 1132 219 1395H18150c-426 0-815 0-1098-2l-336-4-18-2c0-405-112-1236-246-1852l-285-1060 64-30a12000 12000 0 00 1854-975zm-3016 1290c34-11 43 8 110 218a10600 10600 0 01 436 2432l5 153-1820 4c-1447 4-1822 0-1829-18a36000 36000 0 01-4-1137l5-1114 180-13c900-65 1544-162 2233-337zm-7025 135a12600 12600 0 00 2850 514l72 6v2023l-1693 4H8018l-359-6v-150l50-526a11000 11000 0 01 370-1744zm-4475 3664h2865l29 379c59 813 218 1660 460 2459l30 94-127 55c-567 240-1331 648-1795 959l-62 40-14-16a5000 5000 0 01-176-277l-400-702c-437-874-755-2031-807-2941zm3992 0 1697 4 1707 6v2021l-72 6c-1034 72-1819 207-2719 467l-88 26-72 19-30-98a10000 10000 0 01-132-476 11000 11000 0 01-287-1896zm7940 0-4 78a10700 10700 0 01-414 2363l-33 110c-835-264-1837-444-2870-515l-83-6v-2024l1707-4zm1125 0h2865a4000 4000 0 01-24 301 8000 8000 0 01-1290 3562l-83 123-33-21a12600 12600 0 00-1826-979l-127-55 29-94a11640 11640 0 00 470-2578zm-5651 3164v2191l-4 1453-2 385-4-4a14000 14000 0 01-389-373 10300 10300 0 01-1895-2613 13000 13000 0 01-210-439l-72-155 43-15 484-130a11000 11000 0 01 1926-294zm1111 0 117 6a11000 11000 0 01 1225 144l873 194 342 94 20 6-119 264a10600 10600 0 01-2334 3213l-115 106-2-50-6-1894zm-4748 826 51 110a11700 11700 0 00 1961 3023 11000 11000 0 01-420-133 8000 8000 0 01-2656-1537 14000 14000 0 01-395-383l-203-205a6000 6000 0 01 228-143l678-379 479-233a6000 6000 0 01 277-121m8385 0a7000 7000 0 01 516 235l746 396 402 244-152 158a12000 12000 0 01-361 348c-870 793-2000 1384-3135 1709 780-888 1460-1899 1934-2980" fill="#222"/><use href="#a"/><text xml:space="preserve" fill="#eee" x="13204" y="23289" font-family="Montserrat" font-size="4233" font-weight="500" text-anchor="middle"><tspan x="13204" y="23289">WORLD</tspan></text></g><g transform="matrix(2 0 0 2 230188 66675)"><rect fill="#222" width="26458" height="26458" rx="1984"/><rect fill="#00897b" width="23813" height="23813" x="1323" y="1323" rx="1323"/><use href="#a"/><path d="m9402 18521-18-806-613-102c-657-109-1530-363-2002-582-786-360-1584-1094-1860-1702-145-321-175-476-174-890 2-598 150-938 554-1271 418-344 896-507 1503-512 594-5 968 115 1360 438 1278 1053 584 2796-1181 2968l-414 40 180 170c342 327 1114 628 2076 810 664 126 594 427 594-2557v-2622l-340-142-900-376c-1444-606-2454-1493-2830-2488-295-780-207-2047 200-2866 566-1140 1882-2007 3502-2312l370-70v-1520h518V3600h1292V2129h580v766c0 421 23 766 49 766 215 2 954 148 1354 267 1647 490 2623 1357 2716 2413 40 470-90 830-425 1170-380 385-662 488-1335 489-532 0-611-15-935-182a1630 1630 0 01-845-1048c-70-280-62-364 57-723 143-428 280-585 765-872 202-121 360-163 629-171 198-3 359-27 360-51 3-155-1025-568-1710-688l-533-96-146-28 19 2420 17 2420 634 226c1369 491 2559 1114 3199 1674 884 776 1162 1294 1217 2272 60 1072-157 1860-735 2662-522 720-1274 1200-2433 1545a9000 9000 0 01-1312 280l-606 70v1623h-581v-1590H9928v1590h-510zm1580-1313h242v-4700l-582-212-646-212c-41 0-64 904-64 2560V17200l274 24a2300 2300 0 00 404 4c71-10 238-20 371-20zm1532-340c486-209 1051-710 1232-1093a2060 2060 0 00 5-1539c-274-565-727-944-1621-1357l-325-150v4370l175-40a4400 4400 0 00 533-200M11225 6430V4073l-404 1a6000 6000 0 00-647 37l-243 37 17 2123 17 2123 160 43 615 193 468 153c9 1 16-1058 16-2354m-1808-206c0-2178 40-2052-554-1742-484 253-950 746-1090 1153-240 692-43 1309 590 1863 238 207 906 630 1005 636 27 2 48-858 48-1911" fill="#222"/><text xml:space="preserve" fill="#eee" x="13087" y="23473" font-family="Montserrat" font-size="4233" font-weight="500" letter-spacing="0" text-anchor="middle"><tspan x="13087" y="23473">MARKETS</tspan></text></g><g transform="scale(2)"><rect fill="#222" width="26458" height="26458" rx="1984"/><rect fill="#8bc34a" width="23813" height="23813" x="1323" y="1323" rx="1323"/><path d="m2974 20165 565-914 518-830V5786l-574-923-540-957c20-20 1813 10 3987 60l7831 2 3917-55c21 20-222 465-541 985l-580 946v12546l572 920 572 931c0 7-3549 12-7886 12l-7840-76zm4133-1659c0-11-87-274-193-586-254-748-347-1440-263-1954 146-900 541-1370 1941-2317 1225-828 1338-954 1338-1490 0-568-190-800-1257-1538-1490-1030-1902-1516-2020-2384-70-524 26-1440 218-2058l156-466h-2120v6330L5000 18383l1906 130c115 7 210 4 210-6zm9210-104 400-40V5712H15640c-934 0-1070 15-1030 117 287 749 390 1273 390 1981 0 652-25 811-176 1094-285 534-756 984-1653 1578-1180 781-1488 1132-1488 1689 0 466 220 716 1230 1400 1610 1088 2050 1646 2107 2666 33 576-106 1171-468 2000l-124 284 744-30 1144-80m-2012-1650c154-574-73-1178-626-1667-326-288-2240-1594-2335-1594-79 0-39 726 68 1230 182 857 653 1569 1252 1890 254 136 942 300 1280 306 264 4 322-23 360-166zm-5744-30c760-227 1290-727 1551-1470 137-387 320-1662 250-1733-63-62-1287 710-1952 1230-797 624-1134 1212-1036 1810 46 284 50 286 407 286 200 0 546-55 773-122m4175-7387c900-220 1375-578 1550-1168 116-396 20-1033-285-1849L13800 5790H7810l-208 553c-264 702-348 1740-170 2082 290 558 938 891 1986 1024 766 90 2734 30 3315-110" fill="#222"/><use href="#a"/><g fill="#eee" font-family="Montserrat" font-size="4233" font-weight="500" letter-spacing="-.265" text-anchor="middle"><path d="M2224 20325h2417v504h-923v2459h-571v-2459h-923zm4409 2963-512-876q-34 4-106 4h-669v872h-567v-2963h1236q576 0 889 267t313 753q0 347-152 593-148 245-436 368l640 982zm-1287-1372h669q322 0 491-140t169-415q0-271-169-406-169-136-491-136h-669"/><path d="m9766 23289-262-626H8055l-262 627h-588l1300-2963h588l1283 2963zm-1507-1113H9300l-516-1245zm3440-1850q444 0 796 191 351 186 550 525t199 766-203 766q-199 334-555 525-356 190-809 190h-1210v-2963zm13 2464q271 0 487-123 220-127 343-347 123-224 123-508t-127-508q-127-229-351-351-220-127-495-127h-656v1964zm1765-2464h567v2963h-567zm703 0h2417v504h-923v2460h-572v-2460h-923zm2554 0h567v2963h-567zm2380-38q440 0 800 199 364 200 572 546t207 770-207 775q-207 347-572 550-360 203-800 203t-804-203q-360-203-567-550-207-351-207-775 0-423 207-770t567-546q364-199 804-199m9 508q-271 0-504 136-233 131-368 364-136 229-136 508t136 512q140 233 370 368 240 135 510 135 270-11 497-146 229-136 360-368 137-233 137-512t-136-508q-130-233-360-364-229-136-495-136m3870-470h550v2962h-539l-1524-2040v2040h-554v-2960h537L23000 22363"/></g></g><g transform="matrix(2 0 0 2 396875 66675)"><rect fill="#222" width="26458" height="26458" rx="1984"/><rect fill="#9c27b0" width="23813" height="23813" x="1323" y="1323" rx="1323"/><path d="M10805 3447a160 160 0 00-136 115v2c-528 75-1027 401-1480 1127-476 776-836 1889-1111 3276-1296-448-2424-700-3336-684-960 17-1626 262-1926 787v2a1300 1300 0 00-154 635c0 421 155 892 448 1418 433 800 1208 1657 2242 2565-1051 924-1835 1787-2268 2580v2c-275 525-421 986-421 1390a1300 1300 0 00 154 635v3c290 517 944 766 1886 799h3c914 24 2054-233 3372-696 274 1349 623 2453 1087 3236v2c500 826 1051 1282 1659 1282 601 0 1143-456 1635-1282v-2c464-784 816-1888 1090-3238 1330 458 2473 711 3381 687 942-25 1594-269 1886-785V17300c113-189 169-410 169-651 0-404-146-860-422-1377v-2c-443-797-1234-1657-2294-2579 1036-900 1823-1760 2270-2570h-3c292-513 448-980 448-1390 0-241-56-462-170-651-300-525-968-768-1934-785-910-16-2040 236-3340 682-273-1385-630-2498-1106-3273-492-800-1025-1244-1610-1244h-16zm16 937c150 0 308 67 483 232s360 425 545 780c346 655 624 1638 839 2868a22000 22000 0 00-1865 818 24000 24000 0 00-1893-818c215-1230 492-2213 839-2868 185-355 372-616 550-780s341-232 502-232M4764 8130a5000 5000 0 01 289 6c748 38 1718 287 2856 705a25000 25000 0 00-220 2036 25000 25000 0 00-1650 1214c-938-776-1642-1494-2050-2127V9960q-330-510-408-869c-78-359-29-415 57-558l2-2c78-126 217-232 450-303a2500 2500 0 01 674-88m12103 0q410 6 676 86c235 71 377 177 459 314 82 142 107 320 52 558s-192 532-413 871v1c-407 640-1116 1362-2062 2140a25000 25000 0 00-1650-1218 22000 22000 0 00-231-2046c1137-418 2114-667 2878-705h2a5000 5000 0 01 290-6zm-4036 1040 112 1080-527-328-7-4-570-309 991-440zm-4042 10 991 430-560 310-5 1-541 330 115-1073zm2006 936 1141 615 1092 661 33 1296-33 1287-1092 658-2 2-1115 622a19000 19000 0 01-1120-623l-12-3a18000 18000 0 01-1100-658 38000 38000 0 01-26-1288l20-1296a24000 24000 0 01 1104-660h3zm25 1486q-285 2-539 143a950 950 0 00-403 391 1100 1100 0 00-143 550c0 190 50 373 143 541l2 1a1050 1050 0 00 400 387 1100 1100 0 00 540 143c181 0 360-50 527-143a1050 1050 0 00 400-386l2-2a1100 1100 0 00 143-540 1100 1100 0 00-143-550 950 950 0 00-403-392 1100 1100 0 00-528-143zm-3184 440-7 645v636l-880-635zm6347 0 891 645-890 636 16-635zM6030 13280l1660 1217 220 2034c-1162 425-2146 675-2892 705-399 16-714-16-944-87s-368-176-445-310-100-311-47-545 183-528 396-867h3c383-631 1090-1357 2050-2150zm9560 0c960 793 1672 1520 2063 2150v3c217 340 350 630 403 865s29 405-52 539v3c-78 134-218 238-448 310s-546 102-944 86c-747-30-1735-280-2903-705l220-2036a27000 27000 0 00 1660-1216zm-6915 1835 546 335 560 310-994 436zm4270 2-113 1080a38000 38000 0 01-990-438l570-310 1-1zm-2149 1172 1895 829c-200 1202-474 2172-820 2844v3c-180 360-366 622-543 787s-337 235-497 235-330-70-510-237-370-428-554-787c-348-672-622-1642-830-2844a24000 24000 0 00 1870-829" fill="#222" font-family="Montserrat" font-size="4233" font-weight="700" text-anchor="middle"/><use href="#a"/><g fill="#eee" font-family="Montserrat" font-size="4233" font-weight="500" letter-spacing="-.265" text-anchor="middle"><path d="M3761 20325q559 0 864 267 309 267 309 753 0 508-309 792-305 279-864 279h-648v872h-567v-2963zm-30 1592q322 0 491-140 174-140 174-415 0-271-173-406-169-136-490-136h-619v1096zm3265 1372-512-876q-34 4-106 4h-669v872h-567v-2963h1236q576 0 889 267t313 753q0 347-152 593-148 245-436 368l652 982zM5710 21917h668q322 0 491-140t169-415q0-270-170-406-168-136-490-136h-670zm3573-1630q440 0 800 200 364 198 572 545t207 770-207 775q-207 347-572 550-360 203-800 203t-804-203q-360-203-567-550-207-351-207-775 0-423 207-770 208-347 567-546 364-199 804-199m8 508q-270 0-500 136-230 130-362 364-135 229-135 508t135 512q140 233 368 368 233 135 504 135 267 0 495-135 230-136 360-368 137-233 137-512t-136-508q-132-233-361-364-230-136-495-136"/><path d="M13007 21815h495v1126q-233 174-550 284-318 106-622 106-436 0-796-203-356-203-563-550-207-350-207-775 0-423 212-766 212-347 576-546 368-203 813-203 318 0 627 114t533 313l-322 420q-169-162-394-250-220-90-444-90-280 0-517 136-233 131-368 364-136 233-136 508 0 280 136 512 140 233 373 368t517 135q152 0 318-47 169-50 322-140zm2737 1473-512-876q-34 4-106 4h-669v872h-567v-2963h1236q576 0 889 267t313 753q0 347-152 593-148 245-436 368l652 982zm-1287-1372h669q322 0 491-140t169-415q0-271-169-406-169-136-491-136h-669zm2227-1592h2172v495h-1604v730h1440v490h-1440v742h1655v495h-2222zm4393 762q-229-140-470-216-237-76-419-76-203 0-322 76t-119 212q0 123 80 207 85 80 207 136 127 51 343 114 300 89 491 178 195 90 330 262 136 174 136 457 0 271-148 474-144 200-402 305-254 106-584 106-347 0-677-127-330-130-576-347l237-483q224 207 504 326 279 120 521 120 237 0 373-90 135-93 135-250 0-127-85-207-81-85-207-136-127-50-347-114-301-89-491-174-191-90-326-260-136-178-136-457 0-258 136-449 140-194 389-299 254-106 584-106 288 1 567 86 284 85 504 230zm2398 0q-229-140-470-216-237-76-419-76-203 0-322 76t-119 212q0 123 80 207 85 80 207 136 127 51 343 114 300 89 491 178 195 90 330 262 136 174 136 457 0 271-148 474-144 200-402 305-254 106-584 106-347 0-677-127-330-130-576-347l237-483q224 207 504 326 279 120 521 120 237 0 373-90 135-93 135-250 0-127-85-207-81-85-207-136-127-50-347-114-301-89-491-174-191-90-326-260-136-178-136-457 0-258 136-449 140-194 389-299 254-106 584-106 288 1 567 86 284 85 504 230"/></g></g><text xml:space="preserve" fill="#eee" x="-355537" y="24113" font-family="Montserrat" font-size="8467" font-weight="500" text-anchor="middle"><tspan x="-257488" y="-71030">ORD</tspan></text></svg>
